<?xml version="1.0" standalone="no"?>
<!DOCTYPE svg PUBLIC "-//W3C//DTD SVG 1.1//EN" "http://www.w3.org/Graphics/SVG/1.1/DTD/svg11.dtd" >
<!--
2013-9-30: Created.
-->
<svg>
<metadata>
Created by iconfont
</metadata>
<defs>

<font id="le-font" horiz-adv-x="1024" >
  <font-face
    font-family="le-font"
    font-weight="500"
    font-stretch="normal"
    units-per-em="1024"
    ascent="896"
    descent="-128"
  />
    <missing-glyph />
    
    <glyph glyph-name="x" unicode="x" horiz-adv-x="1001"
d="M281 543q-27 -1 -53 -1h-83q-18 0 -36.5 -6t-32.5 -18.5t-23 -32t-9 -45.5v-76h912v41q0 16 -0.5 30t-0.5 18q0 13 -5 29t-17 29.5t-31.5 22.5t-49.5 9h-133v-97h-438v97zM955 310v-52q0 -23 0.5 -52t0.5 -58t-10.5 -47.5t-26 -30t-33 -16t-31.5 -4.5q-14 -1 -29.5 -0.5
t-29.5 0.5h-32l-45 128h-439l-44 -128h-29h-34q-20 0 -45 1q-25 0 -41 9.5t-25.5 23t-13.5 29.5t-4 30v167h911zM163 247q-12 0 -21 -8.5t-9 -21.5t9 -21.5t21 -8.5q13 0 22 8.5t9 21.5t-9 21.5t-22 8.5zM316 123q-8 -26 -14 -48q-5 -19 -10.5 -37t-7.5 -25t-3 -15t1 -14.5
t9.5 -10.5t21.5 -4h37h67h81h80h64h36q23 0 34 12t2 38q-5 13 -9.5 30.5t-9.5 34.5q-5 19 -11 39h-368zM336 498v228q0 11 2.5 23t10 21.5t20.5 15.5t34 6h188q31 0 51.5 -14.5t20.5 -52.5v-227h-327z" />
    

    
    <glyph glyph-name="present" unicode="&#58942;" d="M128 537.6l51.2 51.2v-153.6l-51.2 51.2h778.3936l-51.2-51.2v153.6l51.2-51.2H128z m778.3936 51.2v-153.6H128v153.6h778.3936zM204.8 435.2l51.2 51.2v-474.624l-51.2 51.2h640l-51.2-51.2V486.4l51.2-51.2H204.8z m640 51.2v-474.624H204.8V486.4h640zM512 460.8h51.2v-409.6h-51.2zM332.8 665.6l128 102.4 76.8-179.2-51.2-51.2zM742.4 665.6l-128 102.4-76.8-179.2 51.2-51.2z"  horiz-adv-x="1049" />

    
    <glyph glyph-name="arrow-down-a" unicode="&#58924;" d="M391.628 378.255c-22.409 22.409-14.006 39.217 16.807 39.217h224.093c30.816 0 39.217-16.807 16.807-39.217L540.089 269.008c-11.203-11.203-28.012-11.203-39.217 0L391.625 378.255z"  horiz-adv-x="1024" />

    
    <glyph glyph-name="arrow-down-b" unicode="&#58925;" d="M262.626 354.706a30.118 30.118 0 1 1-43.37-41.804l271.06-281.098a30.118 30.118 0 0 1 43.369 0l271.059 281.098a30.118 30.118 0 1 1-43.37 41.804L512 96.096l-249.374 258.61zM481.882 705.255v-441.726a30.118 30.118 0 0 1 60.236 0V705.255a30.118 30.118 0 0 1-60.236 0z"  horiz-adv-x="1024" />

    
    <glyph glyph-name="achieve" unicode="&#58926;" d="M716.8 202.24c-7.68 0-12.8-5.12-12.8-12.8H320c0 7.68-5.12 12.8-12.8 12.8s-12.8-5.12-12.8-12.8V-89.6c0-5.12 2.56-7.68 5.12-10.24 5.12-2.56 7.68-2.56 12.8 0l204.8 112.64 192-112.64c2.56 0 5.12-2.56 7.68-2.56 2.56 0 5.12 0 5.12 2.56 5.12 2.56 7.68 7.68 7.68 10.24V189.44c0 7.68-5.12 12.8-12.8 12.8zM102.4 486.4a409.6 409.6 0 1 1 819.2 0 409.6 409.6 0 1 1-819.2 0zM307.2 486.4a204.8 204.8 0 1 1 409.6 0 204.8 204.8 0 1 1-409.6 0zM307.2 486.4a204.8 204.8 0 1 1 409.6 0 204.8 204.8 0 1 1-409.6 0z"  horiz-adv-x="1024" />

    
    <glyph glyph-name="arrow-right" unicode="&#58927;" d="M971.016 193.629c-40.058-40.058-70.103-25.037-70.102 30.043V624.254c0 55.08 30.043 70.102 70.102 30.043L1166.3 459.013c20.029-20.029 20.029-50.073 0-70.102L971.016 193.628z"  horiz-adv-x="2048" />

    
    <glyph glyph-name="arrow-up-a" unicode="&#58928;" d="M648.308 375.527c23.903-23.903 14.94-41.83-17.927-41.83H391.346c-32.868 0-41.831 17.928-17.928 41.83l116.529 116.53c11.951 11.951 29.88 11.951 41.83 0l116.53-116.53z"  horiz-adv-x="1024" />

    
    <glyph glyph-name="arrow-right-b" unicode="&#58929;" d="M777.961574 415.991993L310.207599 882.76898a45.472414 45.472414 0 0 1-64.136174 0 45.146418 45.146418 0 0 1 0-64.043175L681.757813 384.016405 246.071425-50.692996a45.146418 45.146418 0 0 1 0-64.042175c17.686772-17.639773 46.449402-17.639773 64.136174 0l467.753975 466.776988a45.146418 45.146418 0 0 1 0 63.949176"  horiz-adv-x="1024" />

    
    <glyph glyph-name="card" unicode="&#58930;" d="M943.686 695.216H80.314c-38.15 0-70.275-32.126-70.275-70.275v-501.96c0-38.15 32.126-70.275 70.275-70.275h863.372c38.15 0 70.275 32.125 70.275 70.274V624.941c0 38.15-32.126 70.275-70.275 70.275z m0-582.275H80.314c-6.024 0-10.04 4.016-10.04 10.04V624.94c0 6.024 4.016 10.04 10.04 10.04h863.372c6.024 0 10.04-4.016 10.04-10.04V524.55H250.98c-16.062 0-30.117-14.055-30.117-30.118s14.055-30.117 30.117-30.117h702.745V122.98c0-6.023-4.015-10.039-10.039-10.039zM853.333 343.843H572.235c-16.062 0-30.117-14.055-30.117-30.118s14.055-30.117 30.117-30.117h281.098c16.063 0 30.118 14.055 30.118 30.117s-14.055 30.118-30.118 30.118z"  horiz-adv-x="1024" />

    
    <glyph glyph-name="close" unicode="&#58931;" d="M565.76 384L921.6 739.84c15.36 15.36 15.36 38.4 0 53.76s-38.4 15.36-53.76 0L512 437.76 156.16 793.6c-15.36 15.36-38.4 15.36-53.76 0s-15.36-38.4 0-53.76L458.24 384 102.4 28.16c-15.36-15.36-15.36-38.4 0-53.76s38.4-15.36 53.76 0L512 330.24 867.84-25.6c15.36-15.36 38.4-15.36 53.76 0s15.36 38.4 0 53.76L565.76 384z"  horiz-adv-x="1024" />

    
    <glyph glyph-name="coupon" unicode="&#58932;" d="M980.992 506.88h10.24c18.432-2.048 32.768 12.288 32.768 30.72V640c0 38.912-32.768 71.68-71.68 71.68H71.68C32.768 711.68 0 678.912 0 640v-491.52c0-38.912 32.768-71.68 71.68-71.68h880.64c38.912 0 71.68 32.768 71.68 71.68v102.4c0 18.432-14.336 32.768-32.768 30.72h-10.24c-67.584 0-122.88 51.2-122.88 112.64 2.048 61.44 55.296 112.64 122.88 112.64zM962.56 222.208v-71.68c0-6.144-4.096-10.24-10.24-10.24H243.712c2.048 4.096 2.048 6.144 2.048 10.24 0 16.384-14.336 30.72-30.72 30.72s-30.72-14.336-30.72-30.72c0-4.096 0-6.144 2.048-10.24H71.68c-6.144 0-10.24 4.096-10.24 10.24v491.52c0 6.144 4.096 10.24 10.24 10.24h114.688c-2.048-4.096-2.048-6.144-2.048-10.24 0-16.384 14.336-30.72 30.72-30.72s30.72 14.336 30.72 30.72c0 4.096 0 6.144-2.048 10.24H952.32c6.144 0 10.24-4.096 10.24-10.24v-71.68c-92.16-8.192-163.84-81.92-163.84-174.08S870.4 230.4 962.56 222.208zM184.32 517.12a30.72 30.72 0 1 1 61.44 0 30.72 30.72 0 1 1-61.44 0zM184.32 394.24a30.72 30.72 0 1 1 61.44 0 30.72 30.72 0 1 1-61.44 0zM184.32 271.36a30.72 30.72 0 1 1 61.44 0 30.72 30.72 0 1 1-61.44 0z"  horiz-adv-x="1024" />

    
    <glyph glyph-name="bulb" unicode="&#58933;" d="M844.8 512c0 184.32-148.48 332.8-332.8 332.8S179.2 696.32 179.2 512c0-115.2 56.32-220.16 153.6-281.6V128c0-28.16 23.04-51.2 51.2-51.2h256c28.16 0 51.2 23.04 51.2 51.2V230.4c97.28 64 153.6 168.96 153.6 281.6zM650.24 296.96l-35.84-23.04V153.6H409.6V273.92l-35.84 23.04C299.52 345.6 256 424.96 256 512c0 140.8 115.2 256 256 256s256-115.2 256-256c0-87.04-43.52-168.96-117.76-215.04zM604.16 25.6H417.28c-20.48 0-35.84-17.92-35.84-38.4s15.36-38.4 35.84-38.4h186.88c20.48 0 35.84 17.92 35.84 38.4s-15.36 38.4-35.84 38.4z"  horiz-adv-x="1024" />

    
    <glyph glyph-name="cart" unicode="&#58934;" d="M138.24 691.2H64c-20.48 0-38.4 17.92-38.4 38.4S43.52 768 64 768h102.4c17.92 0 33.28-12.8 38.4-28.16L325.12 256h427.52l81.92 307.2h-435.2c-20.48 0-38.4 17.92-38.4 38.4s17.92 38.4 38.4 38.4h486.4c25.6 0 43.52-23.04 35.84-48.64l-102.4-384c-5.12-17.92-20.48-28.16-35.84-28.16h-486.4c-17.92 0-33.28 12.8-38.4 28.16L138.24 691.2zM345.6 0c-35.84 0-64 28.16-64 64s28.16 64 64 64 64-28.16 64-64-28.16-64-64-64z m384 0c-35.84 0-64 28.16-64 64s28.16 64 64 64 64-28.16 64-64-28.16-64-64-64z"  horiz-adv-x="1024" />

    
    <glyph glyph-name="delete" unicode="&#58935;" d="M153.6 665.6h704a38.4 38.4 0 0 1 0 76.8h-704a38.4 38.4 0 0 1 0-76.8z m307.2 115.2v-64a38.4 38.4 0 0 1 76.8 0v64a38.4 38.4 0 0 1-76.8 0z m-281.6-89.6v-601.626c0-77.824 62.976-140.774 140.954-140.774h383.692A140.8 140.8 0 0 1 844.8 89.78V539.391a38.4 38.4 0 0 1-76.8 0v-449.638a64 64 0 0 0-64.154-64.154H320.154A63.923 63.923 0 0 0 256 89.574V691.2a38.4 38.4 0 0 1-76.8 0z m384-140.8v-435.2a38.4 38.4 0 0 1 76.8 0V550.4a38.4 38.4 0 0 1-76.8 0z m-179.2 0v-435.2a38.4 38.4 0 0 1 76.8 0V550.4a38.4 38.4 0 0 1-76.8 0z"  horiz-adv-x="1024" />

    
    <glyph glyph-name="clock" unicode="&#58936;" d="M510.669 844.8a459.469 459.469 0 1 0 0-918.938 459.469 459.469 0 0 0 0 918.938zM563.2 642.662a51.2 51.2 0 0 1-102.4 0v-281.6a51.2 51.2 0 0 1 22.784-42.598l153.6-102.4a51.2 51.2 0 1 1 56.832 85.197L563.2 388.454V642.662z"  horiz-adv-x="1024" />

    
    <glyph glyph-name="comment" unicode="&#58937;" d="M245.76-15.36c-4.096 0-8.192 0-12.288 2.048-12.288 4.096-18.432 16.384-18.432 28.672V148.48h-71.68c-38.912 0-71.68 32.768-71.68 71.68V650.24c0 38.912 32.768 71.68 71.68 71.68h757.76c38.912 0 71.68-32.768 71.68-71.68v-430.08c0-38.912-32.768-71.68-71.68-71.68H421.888L266.24-7.168c-4.096-4.096-12.288-8.192-20.48-8.192z m-102.4 675.84c-6.144 0-10.24-4.096-10.24-10.24v-430.08c0-6.144 4.096-10.24 10.24-10.24h102.4c16.384 0 30.72-14.336 30.72-30.72v-90.112L387.072 199.68c6.144 6.144 14.336 8.192 22.528 8.192h491.52c6.144 0 10.24 4.096 10.24 10.24v430.08c0 6.144-4.096 10.24-10.24 10.24H143.36zM245.76 445.44a61.44 61.44 0 1 1 122.88 0 61.44 61.44 0 1 1-122.88 0zM450.56 445.44a61.44 61.44 0 1 1 122.88 0 61.44 61.44 0 1 1-122.88 0zM655.36 445.44a61.44 61.44 0 1 1 122.88 0 61.44 61.44 0 1 1-122.88 0z"  horiz-adv-x="1024" />

    
    <glyph glyph-name="flag" unicode="&#58938;" d="M770.56 704c23.04 25.6 5.12 64-28.16 64H204.8c-20.48 0-38.4-17.92-38.4-38.4v-691.2c0-20.48 17.92-38.4 38.4-38.4s38.4 17.92 38.4 38.4V691.2h409.6l-117.76-128c-12.8-15.36-12.8-38.4 0-51.2L652.8 384H320c-20.48 0-38.4-17.92-38.4-38.4s17.92-38.4 38.4-38.4h422.4c33.28 0 51.2 40.96 28.16 64l-153.6 166.4L770.56 704z"  horiz-adv-x="1024" />

    
    <glyph glyph-name="chat" unicode="&#58939;" d="M168.96 279.04l135.68-128c25.6-23.04 64-5.12 64 28.16v99.84h38.4c20.48 0 38.4 17.92 38.4 38.4s-17.92 38.4-38.4 38.4h-76.8c-20.48 0-38.4-17.92-38.4-38.4v-48.64l-81.92 76.8c-7.68 7.68-15.36 10.24-25.6 10.24H140.8c-35.84 0-64 28.16-64 64V755.2c0 35.84 28.16 64 64 64h742.4c35.84 0 64-28.16 64-64v-335.36c0-35.84-28.16-64-64-64-20.48 0-38.4-17.92-38.4-38.4s17.92-38.4 38.4-38.4c76.8 0 140.8 64 140.8 140.8V755.2C1024 832 960 896 883.2 896H140.8C64 896 0 832 0 755.2v-335.36c0-76.8 64-140.8 140.8-140.8h28.16zM230.4 614.4a51.2 51.2 0 1 1 102.4 0 51.2 51.2 0 1 1-102.4 0zM460.8 614.4a51.2 51.2 0 1 1 102.4 0 51.2 51.2 0 1 1-102.4 0zM691.2 614.4a51.2 51.2 0 1 1 102.4 0 51.2 51.2 0 1 1-102.4 0zM793.6 0c0 84.48-69.12 153.6-153.6 153.6S486.4 84.48 486.4 0v-51.2h307.2V0z m76.8-76.8c0-28.16-23.04-51.2-51.2-51.2H460.8c-28.16 0-51.2 23.04-51.2 51.2V0c0 128 102.4 230.4 230.4 230.4S870.4 128 870.4 0v-76.8zM640 332.8c28.16 0 51.2 23.04 51.2 51.2s-23.04 51.2-51.2 51.2-51.2-23.04-51.2-51.2 23.04-51.2 51.2-51.2z m0-76.8c-71.68 0-128 56.32-128 128s56.32 128 128 128 128-56.32 128-128-56.32-128-128-128z"  horiz-adv-x="1024" />

    
    <glyph glyph-name="lefit" unicode="&#58940;" d="M1464.51-112.684l25.22 201.728h-378.28c-69.603 0-120.437 45.159-113.474 100.864l12.624 100.879h504.335l25.22 201.728H1035.82l12.61 100.878c6.948 55.706 69.061 100.864 138.693 100.864h378.251L1590.58 896h-378.236c-208.91 0-395.191-135.49-416.095-302.607l-25.22-201.728-25.205-201.757c-20.904-167.117 131.526-302.592 340.422-302.592h378.265z m119.091 162.026l-7.65-61.162-12.596-100.879h252.182l12.596 100.88 25.22 201.742 12.61 100.864h504.348l25.205 201.742h-504.334l12.595 100.85c6.963 55.72 69.047 100.878 138.708 100.878h378.251L2445.941 896h-378.25c-208.897 0-395.192-135.475-416.081-302.621l-25.22-201.728-25.205-201.728-16.37-130.838-1.214-9.743z m1087.284-162.026l42.276 338.271 8.163 65.2 5.369 43.022 3.979 31.788 3.262 26.04 37.815 302.62L2796.954 896H2544.8l-25.22-201.728-25.22-201.743-15.213-121.768-60.445-483.43zM3324.504 896h-428.69l-25.206-201.743h252.153l-25.205-201.728-19.353-154.8-31.1-248.685h0.028-0.029l-25.19-201.728h252.167l35.065 280.561 15.36 122.924 25.234 201.728h-0.03l25.22 201.728h252.182L3652.33 896h-252.167zM634.368 89.044H382.186c-69.632 0-120.437 45.159-113.474 100.879l25.22 201.728 12.61 100.878 37.815 302.592L356.98 896H104.814L92.189 795.121 66.984 593.393l-25.22-201.742L16.53 189.923c-20.875-167.117 131.54-302.607 340.451-302.607h252.153l25.234 201.728z"  horiz-adv-x="3657" />

    
    <glyph glyph-name="medal" unicode="&#58941;" d="M512 179.2c168.96 0 307.2 138.24 307.2 307.2S680.96 793.6 512 793.6 204.8 655.36 204.8 486.4 343.04 179.2 512 179.2z m-140.8-48.64v-128l128 71.68c12.8 7.68 25.6 5.12 38.4 0l115.2-69.12V130.56c-43.52-17.92-92.16-25.6-140.8-25.6-48.64-2.56-97.28 7.68-140.8 25.6z m-76.8 38.4C194.56 238.08 128 353.28 128 486.4c0 212.48 171.52 384 384 384s384-171.52 384-384c0-130.56-66.56-248.32-166.4-317.44V-64c0-30.72-33.28-48.64-58.88-33.28l-153.6 92.16-166.4-92.16c-25.6-15.36-56.32 5.12-56.32 33.28V168.96zM512 384c56.32 0 102.4 46.08 102.4 102.4S568.32 588.8 512 588.8s-102.4-46.08-102.4-102.4S455.68 384 512 384z m0-76.8c-99.84 0-179.2 79.36-179.2 179.2S412.16 665.6 512 665.6s179.2-79.36 179.2-179.2S611.84 307.2 512 307.2z"  horiz-adv-x="1024" />

    
    <glyph glyph-name="headset" unicode="&#58943;" d="M947.2 332.8C947.2 573.44 752.64 768 512 768S76.8 573.44 76.8 332.8v-281.6c0-28.16 23.04-51.2 51.2-51.2h179.2c28.16 0 51.2 23.04 51.2 51.2V332.8c0 28.16-23.04 51.2-51.2 51.2H158.72C184.32 558.08 332.8 691.2 512 691.2S842.24 558.08 865.28 384H716.8c-28.16 0-51.2-23.04-51.2-51.2v-281.6c0-28.16 23.04-51.2 51.2-51.2H896c28.16 0 51.2 23.04 51.2 51.2V332.8z m-665.6-256h-128V307.2h128v-230.4z m588.8 0h-128V307.2h128v-230.4z"  horiz-adv-x="1024" />

    
    <glyph glyph-name="location-a" unicode="&#58944;" d="M486.4 721.613c106.394 0 192.614-84.122 192.614-187.904 0-103.731-86.22-187.802-192.614-187.802-106.342 0-192.614 84.07-192.614 187.853 0 103.731 86.272 187.904 192.614 187.904z m332.8-201.421c0 179.2-148.992 324.608-332.8 324.608S153.6 699.494 153.6 520.192a317.9 317.9 0 0 1 44.39-162.048l215.04-401.766c40.09-74.855 105.165-75.11 145.408-0.205L774.246 357.17A317.235 317.235 0 0 1 819.2 520.192z"  horiz-adv-x="1024" />

    
    <glyph glyph-name="location-b" unicode="&#58945;" d="M192-51.2h640v38.4a38.4 38.4 0 0 0 76.8 0v-76.8a38.4 38.4 0 0 0-38.4-38.4H153.6a38.4 38.4 0 0 0-38.4 38.4v76.8a38.4 38.4 0 0 0 76.8 0v-38.4z m678.4 601.6C870.4 347.11 602.086 0 512 0S153.6 346.65 153.6 550.4C153.6 741.274 314.06 896 512 896s358.4-154.726 358.4-345.6zM553.267 113.254c34.1 32.18 72.73 78.106 108.749 129.69C741.811 357.197 793.6 476.416 793.6 550.4c0 147.814-125.44 268.8-281.6 268.8S230.4 698.214 230.4 550.4c0-74.214 51.789-193.408 131.584-307.61 35.994-51.532 74.624-97.433 108.723-129.587 15.616-14.745 29.543-25.856 40.448-32.614 12.544 6.758 26.47 17.894 42.112 32.665zM512 409.6a153.6 153.6 0 1 0 0 307.2 153.6 153.6 0 0 0 0-307.2z m0 76.8a76.8 76.8 0 1 1 0 153.6 76.8 76.8 0 0 1 0-153.6z"  horiz-adv-x="1024" />

    
    <glyph glyph-name="money" unicode="&#58946;" d="M512 15.36c202.752 0 368.64 165.888 368.64 368.64S714.752 752.64 512 752.64 143.36 586.752 143.36 384 309.248 15.36 512 15.36z m0-61.44C274.432-46.08 81.92 146.432 81.92 384S274.432 814.08 512 814.08 942.08 621.568 942.08 384 749.568-46.08 512-46.08zM376.832 535.552l86.016-155.648h-51.2c-6.144 0-10.24-4.096-10.24-10.24v-12.288c0-6.144 4.096-10.24 10.24-10.24h69.632v-40.96H409.6c-6.144 0-10.24-4.096-10.24-10.24v-12.288c0-6.144 4.096-10.24 10.24-10.24h71.68v-63.488c0-6.144 4.096-10.24 10.24-10.24h40.96c6.144 0 10.24 4.096 10.24 10.24v63.488h71.68c6.144 0 10.24 4.096 10.24 10.24v12.288c0 6.144-4.096 10.24-10.24 10.24h-71.68v40.96h71.68c6.144 0 10.24 4.096 10.24 10.24v12.288c0 6.144-4.096 10.24-10.24 10.24h-53.248l86.016 155.648c2.048 4.096 0 10.24-4.096 14.336-2.048 0-4.096 2.048-4.096 2.048h-38.912c-8.192 0-14.336-4.096-18.432-12.288l-67.584-137.216-67.584 137.216c-4.096 6.144-10.24 12.288-18.432 12.288H389.12c-6.144 0-10.24-4.096-10.24-10.24-4.096-2.048-4.096-4.096-2.048-6.144z"  horiz-adv-x="1024" />

    
    <glyph glyph-name="nav" unicode="&#58947;" d="M676.328 567.532h145.994L603.297 832.208 384.305 567.532h145.96v-189.12H201.678v-442.62h146.061V227.134h219.06v1.178h109.53z"  horiz-adv-x="1024" />

    
    <glyph glyph-name="order" unicode="&#58948;" d="M675.84 742.4H806.4c5.12 0 12.8-7.68 12.8-12.8v-691.2c0-5.12-7.68-12.8-12.8-12.8H243.2c-5.12 0-12.8 7.68-12.8 12.8V729.6c0 5.12 7.68 12.8 12.8 12.8h102.4c20.48 0 38.4 17.92 38.4 38.4s-17.92 38.4-38.4 38.4H243.2c-46.08 0-89.6-43.52-89.6-89.6v-691.2c0-46.08 43.52-89.6 89.6-89.6h563.2c46.08 0 89.6 43.52 89.6 89.6V729.6c0 46.08-43.52 89.6-89.6 89.6H675.84c-20.48 0-38.4-17.92-38.4-38.4s17.92-38.4 38.4-38.4zM448 742.4h128c20.48 0 38.4 17.92 38.4 38.4S596.48 819.2 576 819.2H448c-20.48 0-38.4-17.92-38.4-38.4s17.92-38.4 38.4-38.4zM358.4 384h332.8c20.48 0 38.4 17.92 38.4 38.4s-17.92 38.4-38.4 38.4H358.4c-20.48 0-38.4-17.92-38.4-38.4s17.92-38.4 38.4-38.4z m0-230.4h332.8c20.48 0 38.4 17.92 38.4 38.4s-17.92 38.4-38.4 38.4H358.4c-20.48 0-38.4-17.92-38.4-38.4s17.92-38.4 38.4-38.4z"  horiz-adv-x="1024" />

    
    <glyph glyph-name="present-b" unicode="&#58949;" d="M934.4 614.4h-89.6c12.8 23.04 17.92 51.2 17.92 76.8 0 99.84-94.72 153.6-222.72 153.6-58.88 0-102.4-20.48-140.8-56.32-38.4 35.84-81.92 56.32-140.8 56.32-120.32 0-192-53.76-192-153.6 0-25.6 5.12-53.76 17.92-76.8h-94.72c-35.84 0-64-28.16-64-64v-153.6c0-35.84 28.16-64 64-64h38.4v-345.6c0-48.64 40.96-89.6 89.6-89.6h563.2c48.64 0 89.6 40.96 89.6 89.6v345.6h74.24c30.72 5.12 53.76 30.72 53.76 64v153.6c0 35.84-28.16 64-64 64z m-576 153.6c53.76 0 87.04-23.04 107.52-58.88 15.36-23.04 51.2-23.04 64 0 23.04 35.84 53.76 58.88 107.52 58.88 89.6 0 140.8-25.6 140.8-76.8 0-30.72-12.8-58.88-38.4-76.8h-460.8c-23.04 17.92-38.4 46.08-38.4 76.8 2.56 48.64 33.28 76.8 117.76 76.8z m435.2-780.8c0-7.68-5.12-12.8-12.8-12.8h-563.2c-7.68 0-12.8 5.12-12.8 12.8v345.6h588.8v-345.6z m38.4 422.4H102.4v128h819.2v-128h-89.6zM512 25.600000000000023c20.48 0 38.4 15.36 38.4 30.72v192c0 17.92-17.92 30.72-38.4 30.72s-38.4-15.36-38.4-30.72v-192c0-15.36 17.92-30.72 38.4-30.72z"  horiz-adv-x="1024" />

    
    <glyph glyph-name="present1" unicode="&#58950;" d="M128 537.6l51.2 51.2v-153.6L128 486.4h778.394l-51.2-51.2V588.8l51.2-51.2H128z m778.394 51.2v-153.6H128V588.8h778.394zM204.8 435.2l51.2 51.2v-474.624l-51.2 51.2h640l-51.2-51.2V486.4l51.2-51.2h-640z m640 51.2v-474.624h-640V486.4h640zM512 460.8h51.2v-409.6H512zM332.8 665.6l128 102.4 76.8-179.2-51.2-51.2z m409.6 0L614.4 768l-76.8-179.2 51.2-51.2z"  horiz-adv-x="1049" />

    
    <glyph glyph-name="person" unicode="&#58951;" d="M512.768 303.36c157.491 0 285.696 132.403 285.696 295.117 0 162.713-128.205 295.117-285.696 295.117-157.542 0-285.696-132.404-285.696-295.117 0-162.714 128.154-295.117 285.696-295.117z m175.82-45.414c-47.615-41.626-109.874-64.308-175.82-64.308-69.632 0-131.891 26.47-179.507 64.308C168.397 201.165 51.2 64.973 51.2-90.164c0-11.366 0-26.47 3.686-37.836h912.077c0 11.366 3.687 26.47 3.687 37.837-3.687 155.136-117.248 291.328-282.061 348.109z"  horiz-adv-x="1024" />

    
    <glyph glyph-name="pt" unicode="&#58952;" d="M849.702 220.596a152.51 152.51 0 0 1-152.51 152.51H392.17a152.51 152.51 0 0 1-152.51-152.51v-283.234h610.042V220.596zM174.298-128V220.596c0 120.33 97.541 217.872 217.872 217.872h305.021c120.331 0 217.873-97.541 217.873-217.872V-128H174.298zM544.68 525.617a152.51 152.51 0 1 1 0 305.021 152.51 152.51 0 0 1 0-305.021z m0-65.362c-120.331 0-217.872 97.542-217.872 217.873S424.35 896 544.68 896s217.872-97.541 217.872-217.872-97.541-217.873-217.872-217.873zM708.085 743.49H141.617a32.68 32.68 0 0 1 0-65.362h566.468a32.68 32.68 0 0 1 0 65.361z"  horiz-adv-x="1024" />

    
    <glyph glyph-name="filter" unicode="&#58953;" d="M141.832 779.508z m24.719 0z m24.719 0z m24.72 0z m24.719 0z m24.719 0z m24.719 0z m24.719 0z m24.72 0z m24.719 0z m24.719 0z m24.719 0z m24.72 0z m24.719 0z m24.72 0z m24.719 0z m24.719 0z m24.719 0z m24.719 0z m24.72 0z m24.719 0z m24.719 0z m24.719 0z m24.719 0z m24.72 0z m24.719 0z m24.719 0z m24.719 0z m24.719 0z m24.72 0z m24.719 0z m-766.296-24.719z m0-24.719z m0-24.72z m0-24.719z m0-24.719z m0-24.719z m0-24.72z m0-24.719z m0-24.72z m0-24.719z m0-24.719z m0-24.719z m0-24.719z m0-24.72z m0-24.719z m0-24.719z m0-24.719z m0-24.719z m0-24.72z m0-24.719z m0-24.719z m0-24.719z m0-24.719z m0-24.72z m0-24.719z m0-24.72z m0-24.719z m0-24.719z m0-24.719z m0-24.72z m0-24.719z m0 331.253v78.904h382.123c13.132 0 21.191 2.367 28.18 15.442 21.586 41.707 57.207 63.179 104.21 63.179s81.385-21.191 102.859-61.997c7.215-13.639 15.273-16.908 29.306-16.908 47.06 0.732 94.178 0 142.874 0v-78.001c-5.635-0.394-11.723-1.071-17.811-1.127-30.265 0-60.587-1.013-90.852 0.283-32.182 1.409-55.12-2.538-77.327-35.055-46.667-68.139-152.906-56.36-192.187 17.247-7.667 14.316-15.78 17.922-30.829 17.866-118.356-0.563-236.713-0.338-355.071-0.338z m512.878 79.355c-21.771-0.271-39.314-17.981-39.314-39.79 0-21.977 17.816-39.793 39.793-39.793 0.168 0 0.337 0 0.505 0.004 21.746 0.271 39.288 17.981 39.288 39.79 0 21.977-17.817 39.793-39.793 39.793-0.168 0-0.337 0-0.505-0.004z m276.896-278.307v-78.001h-31.9c-129.628 0-259.257 0-388.604 0.338-14.203 0-22.15-3.551-29.308-16.908-21.981-41.312-57.769-62.785-104.773-62.334-0.794-0.02-1.729-0.033-2.666-0.033-43.695 0-81.472 25.33-99.453 62.107-7.559 14.518-15.843 17.561-29.765 17.225-33.816-0.787-67.632 0-102.576 0v77.721c33.534 0 67.632 0.787 101.786-0.338 14.937-0.508 23.052 2.987 30.659 17.472 18.316 37.25 55.99 62.436 99.548 62.436 1.103 0 2.205-0.016 3.302-0.048 45.548 0.004 81.787-20.568 102.977-61.43 8.003-15.386 16.908-18.487 32.351-18.429 130.249 0.451 260.44 0 390.689 0z m-553.174-78.904c21.907 0.567 39.453 18.462 39.453 40.454v0.073c-0.527 21.624-18.187 38.956-39.892 38.956-0.38 0-0.759-0.006-1.139-0.016-21.229-0.41-38.326-17.763-38.326-39.106v-0.067c-0.002-0.063-0.002-0.142-0.002-0.222 0-22.037 17.866-39.903 39.903-39.903z m-236.149 555.88v78.003c48.921 0 96.602 0.507 144.281-0.338 1.024-0.143 2.207-0.224 3.41-0.224 10.899 0 20.229 6.71 24.087 16.224 22.606 42.332 58.339 64.087 106.358 63.299 46.328-0.732 80.651-23.052 101.45-63.63 6.877-13.3 14.935-15.612 27.897-15.556 117.568 0.338 235.078 0 352.646 0h28.912v-78.003h-380.6c-13.977 0-21.981-2.986-29.196-16.908-19.81-37.673-58.682-62.926-103.448-62.926s-83.637 25.252-103.142 62.29c-7.463 14.445-15.637 17.544-29.557 17.544-47.286-0.168-94.235 0.226-143.1 0.226z m315.617 39.452c-0.81 21.947-18.792 39.437-40.859 39.452-21.285-0.502-38.37-17.782-38.552-39.097-0.016-0.422-0.024-0.897-0.024-1.373 0-21.508 17.436-38.946 38.946-38.946 0.188 0 0.374 0.002 0.56 0.004 21.893 0.218 39.618 17.883 39.931 39.761z"  horiz-adv-x="1024" />

    
    <glyph glyph-name="select" unicode="&#58954;" d="M512-128C229.24-128 0 101.24 0 384S229.24 896 512 896s512-229.24 512-512-229.24-512-512-512zM343.381 393.557a51.2 51.2 0 0 1-72.362-72.43l134.52-134.554a51.2 51.2 0 0 1 72.43 0l263.612 263.612a51.2 51.2 0 0 1-72.397 72.43l-227.43-227.43-98.339 98.338z"  horiz-adv-x="1024" />

    
    <glyph glyph-name="qr" unicode="&#58955;" d="M911.36 424.96H153.6c-16.384 0-30.72-14.336-30.72-30.72s14.336-30.72 30.72-30.72h757.76c16.384 0 30.72 14.336 30.72 30.72s-14.336 30.72-30.72 30.72zM153.6 537.6c16.384 0 30.72 14.336 30.72 30.72v153.6c0 6.144 4.096 10.24 10.24 10.24h153.6c16.384 0 30.72 14.336 30.72 30.72s-14.336 30.72-30.72 30.72h-153.6c-38.912 0-71.68-32.768-71.68-71.68v-153.6c0-16.384 14.336-30.72 30.72-30.72z m194.56-481.28h-153.6c-6.144 0-10.24 4.096-10.24 10.24v153.6c0 16.384-14.336 30.72-30.72 30.72s-30.72-14.336-30.72-30.72v-153.6c0-38.912 32.768-71.68 71.68-71.68h153.6c16.384 0 30.72 14.336 30.72 30.72s-14.336 30.72-30.72 30.72z m542.72 194.56c-16.384 0-30.72-14.336-30.72-30.72v-153.6c0-6.144-4.096-10.24-10.24-10.24h-153.6c-16.384 0-30.72-14.336-30.72-30.72s14.336-30.72 30.72-30.72h153.6c38.912 0 71.68 32.768 71.68 71.68v153.6c0 16.384-14.336 30.72-30.72 30.72zM696.32 732.16h153.6c6.144 0 10.24-4.096 10.24-10.24v-153.6c0-16.384 14.336-30.72 30.72-30.72s30.72 14.336 30.72 30.72v153.6c0 38.912-32.768 71.68-71.68 71.68h-153.6c-16.384 0-30.72-14.336-30.72-30.72s14.336-30.72 30.72-30.72z"  horiz-adv-x="1024" />

    
    <glyph glyph-name="star" unicode="&#58956;" d="M781.4005 248.448c11.584-53.632 21.76-102.208 30.592-145.664 4.096-18.304 7.808-36.672 11.2-54.976a3364.556 3364.556 0 0 1 9.664-49.92c3.072-14.912 5.632-27.648 7.68-38.208 2.048-10.56 3.392-17.152 4.096-19.84 2.048-13.568-1.024-22.592-9.152-27.008s-17.344-6.656-27.52-6.656c-3.392 0-8.32 1.216-14.784 3.584-6.464 2.368-11.392 4.224-14.784 5.632L512.2805 70.208c-48.256-28.544-92.096-54.016-131.52-76.416a7122.155 7122.155 0 0 1-50.496-28.544c-16.64-9.472-31.744-18.304-45.376-26.496-13.568-8.128-25.344-14.912-35.2-20.352-9.856-5.44-16.448-8.832-19.904-10.176-6.784-3.392-13.76-4.608-20.864-3.584-7.168 1.024-13.632 3.584-19.392 7.616-5.76 4.096-10.048 9.024-12.736 14.784-2.752 5.76-3.392 11.712-2.048 17.856 0.704 2.688 2.368 9.344 5.12 19.84 2.688 10.496 5.76 23.104 9.152 37.696 3.392 14.592 7.296 30.72 11.712 48.384 4.416 17.664 9.024 35.648 13.76 54.016 10.176 42.112 21.76 89.6 34.688 142.592-40.128 34.624-76.16 65.536-108.096 92.672a10854.142 10854.142 0 0 1-40.256 34.176c-13.248 11.2-25.152 21.376-35.712 30.528-10.56 9.152-19.2 16.64-25.984 22.4-6.784 5.76-10.56 9.024-11.2 9.664-8.128 7.488-15.104 15.808-20.928 24.96-5.76 9.216-8 18.496-6.592 28.032 1.344 9.536 5.12 16.96 11.2 22.4 6.144 5.44 12.928 8.832 20.416 10.176l315.008 28.544 117.248 272.96c4.096 10.88 9.856 20.224 17.344 28.032 7.488 7.808 17.664 11.712 30.592 11.712 6.784 0 12.736-1.536 17.856-4.608 5.12-3.072 9.344-6.656 12.736-10.688 3.392-4.096 6.272-8.128 8.64-12.224a281.769 281.769 0 0 0 5.632-10.176l114.176-272.96 315.072-29.568c13.568-3.392 23.104-7.488 28.544-12.224 5.44-4.736 8.128-12.224 8.128-22.4 0-9.536-2.88-17.856-8.64-24.96-5.76-7.168-13.056-15.808-21.888-25.984l-211.072-189.44z m0 0"  horiz-adv-x="1024" />

    
    <glyph glyph-name="success" unicode="&#58957;" d="M1057.324 701.449q-185.21-164.466-444.502-555.628l-85.196-132.609Q420.945 146.562 183.878 383.63l79.269 79.269 211.879-185.21Q586.153 388.816 681.72 479.196t152.612 138.536 97.05 82.233 57.045 43.71l15.558 10.372q2.963 0 8.15-1.482t19.262-14.076 25.928-37.042z"  horiz-adv-x="1215" />

    
    <glyph glyph-name="success-b" unicode="&#58958;" d="M512-128C229.376-128 0 101.376 0 384S229.376 896 512 896s512-229.376 512-512-229.376-512-512-512z m0 962.56C264.192 834.56 61.44 631.808 61.44 384S264.192-66.56 512-66.56 962.56 136.192 962.56 384 759.808 834.56 512 834.56zM448.512 179.2c-10.24 0-22.528 4.096-28.672 12.288L268.288 349.184c-16.384 16.384-16.384 43.008 0 57.344 16.384 16.384 43.008 16.384 57.344 0l122.88-126.976L716.8 556.032c16.384 16.384 40.96 16.384 57.344 0s16.384-40.96 0-57.344l-299.008-307.2c-4.096-8.192-14.336-12.288-26.624-12.288z"  horiz-adv-x="1024" />

    
    <glyph glyph-name="setting" unicode="&#58959;" d="M911.36 519.68l-48.64 10.24 28.16 40.96c23.04 35.84 20.48 84.48-12.8 117.76l-64 64c-30.72 30.72-79.36 35.84-115.2 12.8l-40.96-28.16-10.24 48.64c-7.68 43.52-46.08 74.24-89.6 74.24h-89.6c-43.52 0-81.92-30.72-89.6-74.24l-10.24-48.64-40.96 28.16c-35.84 23.04-84.48 20.48-117.76-12.8l-64-64c-30.72-30.72-35.84-79.36-12.8-115.2l28.16-40.96-48.64-10.24c-43.52-7.68-74.24-46.08-74.24-89.6v-89.6c0-43.52 30.72-81.92 74.24-89.6l48.64-10.24-28.16-40.96c-23.04-35.84-20.48-84.48 12.8-117.76l64-64c30.72-30.72 79.36-35.84 115.2-12.8l40.96 28.16 10.24-48.64c7.68-43.52 46.08-74.24 89.6-74.24h89.6c43.52 0 81.92 30.72 89.6 74.24l10.24 48.64 40.96-28.16c35.84-23.04 84.48-20.48 117.76 12.8l64 64c30.72 30.72 35.84 79.36 12.8 115.2l-28.16 40.96 48.64 10.24c43.52 7.68 74.24 46.08 74.24 89.6v89.6c0 43.52-30.72 81.92-74.24 89.6z m-2.56-181.76c0-7.68-5.12-12.8-12.8-15.36l-69.12-15.36c-12.8-2.56-23.04-10.24-28.16-23.04l-15.36-35.84c-5.12-12.8-2.56-25.6 2.56-35.84l38.4-58.88c5.12-5.12 2.56-15.36-2.56-20.48l-64-64c-5.12-5.12-12.8-5.12-20.48-2.56l-58.88 38.4c-10.24 7.68-23.04 7.68-35.84 2.56l-35.84-15.36c-12.8-5.12-20.48-15.36-23.04-28.16l-15.36-69.12c-2.56-7.68-7.68-12.8-15.36-12.8h-89.6c-7.68 0-12.8 5.12-15.36 12.8L432.64 64c-2.56 12.8-10.24 23.04-23.04 28.16l-35.84 15.36c-5.12 2.56-10.24 2.56-15.36 2.56-7.68 0-15.36-2.56-20.48-5.12l-58.88-38.4c-5.12-5.12-15.36-2.56-20.48 2.56l-64 64c-5.12 5.12-5.12 12.8-2.56 20.48l38.4 58.88c7.68 10.24 7.68 23.04 2.56 35.84l-15.36 35.84c-5.12 12.8-15.36 20.48-28.16 23.04l-69.12 15.36c-7.68 2.56-12.8 7.68-12.8 15.36v89.6c0 7.68 5.12 12.8 12.8 15.36l69.12 15.36c12.8 2.56 23.04 10.24 28.16 23.04l15.36 35.84c5.12 12.8 2.56 25.6-2.56 35.84L192 611.84c-5.12 5.12-2.56 15.36 2.56 20.48l64 64c5.12 5.12 12.8 5.12 20.48 2.56l58.88-38.4c10.24-7.68 23.04-7.68 35.84-2.56l35.84 15.36c12.8 5.12 20.48 15.36 23.04 28.16L448 770.56c2.56 7.68 7.68 12.8 15.36 12.8h89.6c7.68 0 12.8-5.12 15.36-12.8l15.36-69.12c2.56-12.8 10.24-23.04 23.04-28.16l35.84-15.36c12.8-5.12 25.6-2.56 35.84 2.56l58.88 38.4c5.12 5.12 15.36 2.56 20.48-2.56l64-64c5.12-5.12 5.12-12.8 2.56-20.48l-38.4-58.88c-7.68-10.24-7.68-23.04-2.56-35.84l15.36-35.84c5.12-12.8 15.36-20.48 28.16-23.04L896 442.88c7.68-2.56 12.8-7.68 12.8-15.36v-89.6zM512 565.76c-99.84 0-181.76-81.92-181.76-181.76 0-99.84 81.92-181.76 181.76-181.76 99.84 0 181.76 81.92 181.76 181.76 0 99.84-81.92 181.76-181.76 181.76z m0-286.72c-58.88 0-104.96 46.08-104.96 104.96S453.12 488.96 512 488.96 616.96 442.88 616.96 384 570.88 279.04 512 279.04z"  horiz-adv-x="1024" />

    
    <glyph glyph-name="success-c" unicode="&#58960;" d="M854.016 814.08H729.088c-16.384 0-30.72-14.336-30.72-30.72s14.336-30.72 30.72-30.72h124.928c16.384 0 26.624-12.288 26.624-26.624v-663.552c0-14.336-12.288-26.624-26.624-26.624H192.512c-16.384 0-26.624 12.288-26.624 26.624V726.016c0 14.336 12.288 26.624 26.624 26.624h122.88c16.384 0 30.72 14.336 30.72 30.72s-14.336 30.72-30.72 30.72h-122.88c-49.152 0-88.064-38.912-88.064-88.064v-663.552c0-49.152 38.912-88.064 88.064-88.064h661.504c49.152 0 88.064 38.912 88.064 88.064V726.016c0 49.152-38.912 88.064-88.064 88.064zM440.32 752.64h163.84c16.384 0 30.72 14.336 30.72 30.72s-14.336 30.72-30.72 30.72H440.32c-16.384 0-30.72-14.336-30.72-30.72s14.336-30.72 30.72-30.72zM325.632 371.712l122.88-122.88c6.144-6.144 14.336-8.192 22.528-8.192s16.384 2.048 22.528 8.192l225.28 225.28c12.288 12.288 12.288 30.72 0 43.008-12.288 12.288-30.72 12.288-43.008 0l-204.8-204.8-102.4 102.4c-12.288 12.288-30.72 12.288-43.008 0-10.24-10.24-10.24-30.72 0-43.008z"  horiz-adv-x="1024" />

    
    <glyph glyph-name="tip" unicode="&#58961;" d="M512-128C229.376-128 0 101.376 0 384S229.376 896 512 896s512-229.376 512-512-229.376-512-512-512z m0 962.56C264.192 834.56 61.44 631.808 61.44 384S264.192-66.56 512-66.56 962.56 136.192 962.56 384 759.808 834.56 512 834.56zM471.04 629.76c0 22.528 18.432 40.96 40.96 40.96s40.96-18.432 40.96-40.96v-307.2c0-22.528-18.432-40.96-40.96-40.96s-40.96 18.432-40.96 40.96v307.2zM512 128c-28.672 0-51.2 22.528-51.2 51.2s22.528 51.2 51.2 51.2 51.2-22.528 51.2-51.2S540.672 128 512 128z"  horiz-adv-x="1024" />

    
    <glyph glyph-name="tag" unicode="&#58962;" d="M146.74 314.88c-19.969 19.866-37.991 59.34-40.244 86.835l-23.245 279.91c-7.014 84.532 55.296 146.023 140.083 137.217l271.002-28.263c28.058-2.918 66.918-21.35 86.835-41.318l392.602-392.55c39.936-39.937 39.629-104.96-0.41-145.05L684.34-77.363a102.298 102.298 0 0 0-145.05-0.41L146.74 314.88z m202.598 231.782a102.4 102.4 0 1 1-144.794 144.794 102.4 102.4 0 0 1 144.794-144.794z"  horiz-adv-x="1024" />

    
    <glyph glyph-name="warn" unicode="&#58963;" d="M512 824.32C268.288 824.32 71.68 627.712 71.68 384S268.288-56.32 512-56.32 952.32 140.288 952.32 384 755.712 824.32 512 824.32z m0-819.2c-208.896 0-378.88 169.984-378.88 378.88S303.104 762.88 512 762.88 890.88 592.896 890.88 384 720.896 5.12 512 5.12zM452.608 297.984c-2.048-28.672-2.048-49.152-2.048-57.344s-2.048-22.528-4.096-38.912h118.784c0 22.528 2.048 55.296 4.096 98.304h-55.296c-18.432-4.096-38.912-4.096-61.44-2.048z m14.336 284.672c-2.048-94.208-4.096-174.08-6.144-239.616h102.4c8.192 124.928 14.336 204.8 18.432 239.616h-55.296c-16.384-2.048-36.864 0-59.392 0z"  horiz-adv-x="1024" />

    
    <glyph glyph-name="work" unicode="&#58964;" d="M668.16 678.4H614.4s-2.56 0-2.56-2.56c0 0-2.56 0-2.56-2.56l-2.56-2.56-2.56-2.56-2.56-2.56-2.56-2.56-2.56-2.56s0-2.56-2.56-2.56l-230.4-488.96c-135.68 2.56-245.76 102.4-245.76 217.6 0 117.76 112.64 217.6 250.88 217.6h94.72c20.48 0 38.4 17.92 38.4 38.4s-17.92 38.4-38.4 38.4h-94.72c-179.2 0-327.68-133.12-327.68-294.4s148.48-294.4 327.68-294.4h20.48c15.36 0 28.16 7.68 35.84 23.04l230.4 488.96h17.92c135.68 0 240.64-89.6 240.64-204.8 0-120.32-110.08-230.4-240.64-230.4H568.32c-20.48 0-38.4-17.92-38.4-38.4s17.92-38.4 38.4-38.4h104.96c171.52 0 317.44 143.36 317.44 307.2C985.6 555.52 844.8 678.4 668.16 678.4z"  horiz-adv-x="1024" />

    
    <glyph glyph-name="person-b" unicode="&#58965;" d="M512 814.08C274.432 814.08 81.92 621.568 81.92 384s192.512-430.08 430.08-430.08 430.08 192.512 430.08 430.08S749.568 814.08 512 814.08z m0-61.44c202.752 0 368.64-165.888 368.64-368.64 0-79.872-24.576-153.6-67.584-212.992-43.008 67.584-106.496 116.736-180.224 141.312 45.056 34.816 75.776 90.112 75.776 153.6 0 106.496-88.064 194.56-194.56 194.56s-194.56-88.064-194.56-194.56c0-63.488 30.72-118.784 75.776-153.6-73.728-26.624-137.216-75.776-180.224-141.312C167.936 230.39999999999998 143.36 304.12800000000004 143.36 384c0 202.752 165.888 368.64 368.64 368.64z m-133.12-286.72c0 73.728 59.392 133.12 133.12 133.12s133.12-59.392 133.12-133.12-59.392-133.12-133.12-133.12-133.12 59.392-133.12 133.12z m-124.928-344.064c53.248 92.16 149.504 149.504 258.048 149.504s204.8-57.344 258.048-149.504C704.512 56.32000000000005 612.352 15.360000000000014 512 15.360000000000014c-100.352 0-192.512 40.96-258.048 106.496z"  horiz-adv-x="1024" />

    
    <glyph glyph-name="puzzle" unicode="&#58966;" d="M774.243902-40.58536600000002h-499.512195C212.292683-40.58536600000002 162.341463 9.365854000000013 162.341463 71.80487800000003v92.409756C82.419512 181.69756099999995 24.97561 251.62926800000002 24.97561 334.04877999999997c0 84.917073 59.941463 154.84878 137.365853 172.331708V596.292683c0 62.439024 49.95122 112.390244 112.390244 112.390244h94.907317c22.478049 72.429268 89.912195 124.878049 167.336586 124.878049s142.360976-52.44878 167.336585-124.878049h69.931707c62.439024 0 112.390244-49.95122 112.390244-112.390244v-177.326829h-37.463414c-52.44878 0-92.409756-42.458537-92.409756-92.409756s42.458537-92.409756 92.409756-92.409757H886.634146V71.80487800000003c0-62.439024-49.95122-112.390244-112.390244-112.390244z m-574.439024 474.536586c-54.946341 0-99.902439-44.956098-99.902439-99.90244s44.956098-99.902439 97.404878-99.902439h37.463415L237.268293 196.68292699999995v-124.878049c0-19.980488 17.482927-37.463415 37.463414-37.463415h499.512195c19.980488 0 37.463415 17.482927 37.463415 37.463415v89.912195c-74.926829 17.482927-129.873171 84.917073-129.873171 164.839025S736.780488 471.414634 811.707317 488.897561V596.292683c0 19.980488-17.482927 37.463415-37.463415 37.463415h-134.868292L636.878049 666.22439c-7.492683 52.44878-49.95122 92.409756-99.902439 92.409756s-92.409756-39.960976-99.902439-92.409756l-4.995122-32.468292h-159.843903c-17.482927 0-34.965854-17.482927-34.965853-37.463415v-162.341463H199.804878z"  horiz-adv-x="1024" />

    
    <glyph glyph-name="coupon-2" unicode="&#58967;" d="M591.36 570.88L512 412.16l-79.36 158.72h-69.12l99.84-179.2h-66.56V358.4h84.48v-43.52h-84.48V281.6h84.48v-76.8h61.44v76.8h84.48v33.28h-84.48V358.4h84.48v33.28h-66.56l99.84 179.2zM947.2 455.68l25.6 10.24V640c0 43.52-33.28 76.8-76.8 76.8H128c-43.52 0-76.8-33.28-76.8-76.8v-174.08l25.6-10.24c30.72-10.24 51.2-40.96 51.2-71.68s-20.48-61.44-51.2-71.68l-25.6-10.24V128c0-43.52 33.28-76.8 76.8-76.8h768c43.52 0 76.8 33.28 76.8 76.8v174.08l-25.6 10.24c-30.72 10.24-51.2 40.96-51.2 71.68s20.48 61.44 51.2 71.68z m-51.2 61.44c-46.08-28.16-76.8-76.8-76.8-133.12s30.72-104.96 76.8-133.12v-115.2c0-2.56-2.56-7.68-7.68-7.68H135.68c-5.12 0-7.68 2.56-7.68 7.68v115.2c46.08 28.16 76.8 76.8 76.8 133.12s-30.72 104.96-76.8 133.12v115.2c0 5.12 2.56 7.68 7.68 7.68h755.2c2.56 0 7.68-2.56 7.68-7.68v-115.2z"  horiz-adv-x="1024" />

    
    <glyph glyph-name="official" unicode="&#58968;" d="M386.048 896h380.7744L553.6256 551.4752 793.6 577.1776 303.7696-128l140.8 479.6416L230.4 328.8064z"  horiz-adv-x="1024" />

    
    <glyph glyph-name="qr-b" unicode="&#58969;" d="M512 524.8c-20.48 0-38.4 17.92-38.4 38.4v204.8c0 20.48 17.92 38.4 38.4 38.4s38.4-17.92 38.4-38.4v-204.8c0-20.48-17.92-38.4-38.4-38.4zM896-64c-20.48 0-38.4 17.92-38.4 38.4v230.4c0 20.48 17.92 38.4 38.4 38.4s38.4-17.92 38.4-38.4v-230.4c0-20.48-17.92-38.4-38.4-38.4zM768-64h-76.8c-20.48 0-38.4 17.92-38.4 38.4v230.4c0 20.48 17.92 38.4 38.4 38.4s38.4-17.92 38.4-38.4v-192h38.4c20.48 0 38.4-17.92 38.4-38.4s-17.92-38.4-38.4-38.4zM512-64c-20.48 0-38.4 17.92-38.4 38.4v230.4c0 20.48 17.92 38.4 38.4 38.4s38.4-17.92 38.4-38.4v-230.4c0-20.48-17.92-38.4-38.4-38.4zM921.6 345.6h-819.2c-20.48 0-38.4 17.92-38.4 38.4s17.92 38.4 38.4 38.4h819.2c20.48 0 38.4-17.92 38.4-38.4s-17.92-38.4-38.4-38.4zM332.8 499.2h-204.8c-35.84 0-64 28.16-64 64v204.8c0 35.84 28.16 64 64 64h204.8c35.84 0 64-28.16 64-64v-204.8c0-35.84-28.16-64-64-64z m-192 76.8h179.2v179.2h-179.2v-179.2zM332.8-89.60000000000002h-204.8c-35.84 0-64 28.16-64 64v204.8c0 35.84 28.16 64 64 64h204.8c35.84 0 64-28.16 64-64v-204.8c0-35.84-28.16-64-64-64z m-192 76.8h179.2v179.2h-179.2v-179.2zM896 499.2h-204.8c-35.84 0-64 28.16-64 64v204.8c0 35.84 28.16 64 64 64h204.8c35.84 0 64-28.16 64-64v-204.8c0-35.84-28.16-64-64-64z m-192 76.8h179.2v179.2h-179.2v-179.2z"  horiz-adv-x="1024" />

    
    <glyph glyph-name="clock-b" unicode="&#58970;" d="M634.88 332.8h-71.68v117.76c0 30.72-20.48 51.2-51.2 51.2s-51.2-20.48-51.2-51.2v-168.96c0-30.72 20.48-51.2 51.2-51.2h122.88c30.72 0 51.2 20.48 51.2 51.2s-20.48 51.2-51.2 51.2zM814.08 558.08l76.8 76.8c20.48 20.48 20.48 51.2 0 71.68s-51.2 20.48-71.68 0l-81.92-81.92c-51.2 30.72-107.52 56.32-168.96 61.44v107.52h76.8c30.72 0 51.2 20.48 51.2 51.2s-20.48 51.2-51.2 51.2h-256c-30.72 0-51.2-20.48-51.2-51.2s20.48-51.2 51.2-51.2h76.8v-107.52c-61.44-10.24-117.76-30.72-168.96-61.44l-81.92 81.92c-20.48 20.48-51.2 20.48-71.68 0s-20.48-51.2 0-71.68l76.8-76.8c-66.56-71.68-107.52-168.96-107.52-276.48 0-225.28 184.32-409.6 409.6-409.6s409.6 184.32 409.6 409.6c-10.24 107.52-51.2 204.8-117.76 276.48z m-302.08-583.68c-168.96 0-307.2 138.24-307.2 307.2s138.24 307.2 307.2 307.2 307.2-138.24 307.2-307.2-138.24-307.2-307.2-307.2z"  horiz-adv-x="1024" />

    


  </font>
</defs>
</svg>
