<?xml version="1.0" standalone="no"?>
<!DOCTYPE svg PUBLIC "-//W3C//DTD SVG 1.1//EN" "http://www.w3.org/Graphics/SVG/1.1/DTD/svg11.dtd" >
<!--
2013-9-30: Created.
-->
<svg>
<metadata>
Created by iconfont
</metadata>
<defs>

<font id="le-font" horiz-adv-x="1024" >
  <font-face
    font-family="le-font"
    font-weight="500"
    font-stretch="normal"
    units-per-em="1024"
    ascent="896"
    descent="-128"
  />
    <missing-glyph />
    
    <glyph glyph-name="x" unicode="x" horiz-adv-x="1001"
d="M281 543q-27 -1 -53 -1h-83q-18 0 -36.5 -6t-32.5 -18.5t-23 -32t-9 -45.5v-76h912v41q0 16 -0.5 30t-0.5 18q0 13 -5 29t-17 29.5t-31.5 22.5t-49.5 9h-133v-97h-438v97zM955 310v-52q0 -23 0.5 -52t0.5 -58t-10.5 -47.5t-26 -30t-33 -16t-31.5 -4.5q-14 -1 -29.5 -0.5
t-29.5 0.5h-32l-45 128h-439l-44 -128h-29h-34q-20 0 -45 1q-25 0 -41 9.5t-25.5 23t-13.5 29.5t-4 30v167h911zM163 247q-12 0 -21 -8.5t-9 -21.5t9 -21.5t21 -8.5q13 0 22 8.5t9 21.5t-9 21.5t-22 8.5zM316 123q-8 -26 -14 -48q-5 -19 -10.5 -37t-7.5 -25t-3 -15t1 -14.5
t9.5 -10.5t21.5 -4h37h67h81h80h64h36q23 0 34 12t2 38q-5 13 -9.5 30.5t-9.5 34.5q-5 19 -11 39h-368zM336 498v228q0 11 2.5 23t10 21.5t20.5 15.5t34 6h188q31 0 51.5 -14.5t20.5 -52.5v-227h-327z" />
    

    
    <glyph glyph-name="star" unicode="&#58962;" d="M780.608 248.44799999999998c11.584-53.632 21.76-102.208 30.592-145.664 4.096-18.304 7.808-36.672 11.2-54.976 3.392-18.304 6.656-34.944 9.664-49.92 3.072-14.912 5.632-27.648 7.68-38.208 2.048-10.56 3.392-17.152 4.096-19.84 2.048-13.568-1.024-22.592-9.152-27.008-8.128-4.416-17.344-6.656-27.52-6.656-3.392 0-8.32 1.216-14.784 3.584-6.464 2.368-11.392 4.224-14.784 5.632l-266.112 154.816c-48.256-28.544-92.096-54.016-131.52-76.416-17.024-9.536-33.792-19.008-50.496-28.544-16.64-9.472-31.744-18.304-45.376-26.496-13.568-8.128-25.344-14.912-35.2-20.352-9.856-5.44-16.448-8.832-19.904-10.176-6.784-3.392-13.76-4.608-20.864-3.584-7.168 1.024-13.632 3.584-19.392 7.616-5.76 4.096-10.048 9.024-12.736 14.784-2.752 5.76-3.392 11.712-2.048 17.856 0.704 2.688 2.368 9.344 5.12 19.84 2.688 10.496 5.76 23.104 9.152 37.696 3.392 14.592 7.296 30.72 11.712 48.384 4.416 17.664 9.024 35.648 13.76 54.016 10.176 42.112 21.76 89.6 34.688 142.592C208.256 282.048 172.224 312.96000000000004 140.288 340.096 126.72 351.67999999999995 113.28 363.072 100.032 374.27200000000005 86.784 385.472 74.88 395.648 64.32 404.8c-10.56 9.152-19.2 16.64-25.984 22.4-6.784 5.76-10.56 9.024-11.2 9.664-8.128 7.488-15.104 15.808-20.928 24.96C0.448 471.04-1.792 480.32-0.384 489.856c1.344 9.536 5.12 16.96 11.2 22.4 6.144 5.44 12.928 8.832 20.416 10.176L346.24 550.976l117.248 272.96c4.096 10.88 9.856 20.224 17.344 28.032C488.32 859.776 498.496 863.68 511.424 863.68c6.784 0 12.736-1.536 17.856-4.608 5.12-3.072 9.344-6.656 12.736-10.688 3.392-4.096 6.272-8.128 8.64-12.224 2.368-4.096 4.224-7.488 5.632-10.176l114.176-272.96 315.072-29.568c13.568-3.392 23.104-7.488 28.544-12.224 5.44-4.736 8.128-12.224 8.128-22.4 0-9.536-2.88-17.856-8.64-24.96-5.76-7.168-13.056-15.808-21.888-25.984L780.608 248.44799999999998zM780.608 248.44799999999998"  horiz-adv-x="1024" />

    
    <glyph glyph-name="nav" unicode="&#59243;" d="M676.328138 567.532013L822.32221 567.532013 603.296821 832.208115 384.305201 567.532013 530.265504 567.532013 530.265504 378.41172500000005 201.676767 378.41172500000005 201.676767 265.04577099999995 201.676767 227.134323 201.676767-64.20811500000002 347.738377-64.20811500000002 347.738377 227.134323 566.798559 227.134323 566.798559 228.31214799999998 676.328138 228.31214799999998Z"  horiz-adv-x="1024" />

    
    <glyph glyph-name="arrow-down-a" unicode="&#58921;" d="M391.628 378.255c-22.409 22.409-14.006 39.217 16.807 39.217h224.093c30.816 0 39.217-16.807 16.807-39.217l-109.246-109.247c-11.203-11.203-28.012-11.203-39.217 0l-109.247 109.247z"  horiz-adv-x="1024" />

    
    <glyph glyph-name="arrow-up-a" unicode="&#58922;" d="M648.308 375.52700000000004c23.903-23.903 14.94-41.83-17.927-41.83h-239.035c-32.868 0-41.831 17.928-17.928 41.83l116.529 116.53c11.951 11.951 29.88 11.951 41.83 0l116.53-116.53z"  horiz-adv-x="1024" />

    
    <glyph glyph-name="success" unicode="&#58986;" d="M1057.324 701.449q-185.21-164.466-444.502-555.628l-85.196-132.609q-106.681 133.35-343.748 370.418l79.269 79.269 211.879-185.21q111.127 111.127 206.694 201.507t152.612 138.536 97.050 82.233 57.045 43.71l15.558 10.372q2.963 0 8.15-1.482t19.262-14.076 25.928-37.042z"  horiz-adv-x="1215" />

    
    <glyph glyph-name="filter" unicode="&#58905;" d="M141.832 779.508v0zM166.551 779.508v0zM191.27 779.508v0zM215.99 779.508v0zM240.709 779.508v0zM265.428 779.508v0zM290.147 779.508v0zM314.866 779.508v0zM339.586 779.508v0zM364.305 779.508v0zM389.024 779.508v0zM413.743 779.508v0zM438.463 779.508v0zM463.182 779.508v0zM487.902 779.508v0zM512.621 779.508v0zM537.34 779.508v0zM562.059 779.508v0zM586.778 779.508v0zM611.498 779.508v0zM636.217 779.508v0zM660.936 779.508v0zM685.655 779.508v0zM710.374 779.508v0zM735.094 779.508v0zM759.813 779.508v0zM784.532 779.508v0zM809.251 779.508v0zM833.97 779.508v0zM858.69 779.508v0zM883.409 779.508v0zM117.113 754.789v0zM117.113 730.070v0zM117.113 705.35v0zM117.113 680.631v0zM117.113 655.912v0zM117.113 631.193v0zM117.113 606.473v0zM117.113 581.754v0zM117.113 557.034v0zM117.113 532.315v0zM117.113 507.596v0zM117.113 482.877v0zM117.113 458.158v0zM117.113 433.438v0zM117.113 408.719v0zM117.113 384v0zM117.113 359.281v0zM117.113 334.562v0zM117.113 309.842v0zM117.113 285.123v0zM117.113 260.404v0zM117.113 235.685v0zM117.113 210.966v0zM117.113 186.246v0zM117.113 161.527v0zM117.113 136.807v0zM117.113 112.088v0zM117.113 87.369v0zM117.113 62.65v0zM117.113 37.93v0zM117.113 13.211v0zM117.113 344.464v78.904h22.996c119.708 0 239.419 0 359.127 0 13.132 0 21.191 2.367 28.18 15.442 21.586 41.707 57.207 63.179 104.21 63.179s81.385-21.191 102.859-61.997c7.215-13.639 15.273-16.908 29.306-16.908 47.060 0.732 94.178 0 142.874 0v-78.001c-5.635-0.394-11.723-1.071-17.811-1.127-30.265 0-60.587-1.013-90.852 0.283-32.182 1.409-55.12-2.538-77.327-35.055-46.667-68.139-152.906-56.36-192.187 17.247-7.667 14.316-15.78 17.922-30.829 17.866-118.356-0.563-236.713-0.338-355.071-0.338zM629.991 423.819c-21.771-0.271-39.314-17.981-39.314-39.79 0-21.977 17.816-39.793 39.793-39.793 0.168 0 0.337 0 0.505 0.004 21.746 0.271 39.288 17.981 39.288 39.79 0 21.977-17.817 39.793-39.793 39.793-0.168 0-0.337 0-0.505-0.004zM906.887 145.512v-78.001h-31.9c-129.628 0-259.257 0-388.604 0.338-14.203 0-22.15-3.551-29.308-16.908-21.981-41.312-57.769-62.785-104.773-62.334-0.794-0.020-1.729-0.033-2.666-0.033-43.695 0-81.472 25.33-99.453 62.107-7.559 14.518-15.843 17.561-29.765 17.225-33.816-0.787-67.632 0-102.576 0v77.721c33.534 0 67.632 0.787 101.786-0.338 14.937-0.508 23.052 2.987 30.659 17.472 18.316 37.25 55.99 62.436 99.548 62.436 1.103 0 2.205-0.016 3.302-0.048 45.548 0.004 81.787-20.568 102.977-61.43 8.003-15.386 16.908-18.487 32.351-18.429 130.249 0.451 260.44 0 390.689 0zM353.713 66.608c21.907 0.567 39.453 18.462 39.453 40.454 0 0.023 0 0.048 0 0.073-0.527 21.624-18.187 38.956-39.892 38.956-0.38 0-0.759-0.006-1.139-0.016-21.229-0.41-38.326-17.763-38.326-39.106 0-0.021 0-0.045 0-0.067-0.002-0.063-0.002-0.142-0.002-0.222 0-22.037 17.866-39.903 39.903-39.903 0 0 0 0 0 0zM117.564 622.488v78.003c48.921 0 96.602 0.507 144.281-0.338 1.024-0.143 2.207-0.224 3.41-0.224 10.899 0 20.229 6.71 24.087 16.224 22.606 42.332 58.339 64.087 106.358 63.299 46.328-0.732 80.651-23.052 101.45-63.63 6.877-13.3 14.935-15.612 27.897-15.556 117.568 0.338 235.078 0 352.646 0h28.912v-78.003h-21.643c-119.651 0-239.305 0-358.957 0-13.977 0-21.981-2.986-29.196-16.908-19.81-37.673-58.682-62.926-103.448-62.926s-83.637 25.252-103.142 62.29c-7.463 14.445-15.637 17.544-29.557 17.544-47.286-0.168-94.235 0.226-143.1 0.226zM433.181 661.94c-0.81 21.947-18.792 39.437-40.859 39.452-21.285-0.502-38.37-17.782-38.552-39.097-0.016-0.422-0.024-0.897-0.024-1.373 0-21.508 17.436-38.946 38.946-38.946 0.188 0 0.374 0.002 0.56 0.004 21.893 0.218 39.618 17.883 39.931 39.761z"  horiz-adv-x="1024" />

    
    <glyph glyph-name="location-b" unicode="&#58903;" d="M192-51.200000000000045h640v38.4a38.4 38.4 0 0 0 76.8 0v-76.8A38.4 38.4 0 0 0 870.4-128H153.6a38.4 38.4 0 0 0-38.4 38.4v76.8a38.4 38.4 0 0 0 76.8 0V-51.200000000000045zM870.4 550.4C870.4 347.1104 602.0864 0 512 0S153.6 346.64959999999996 153.6 550.4C153.6 741.2736 314.0608 896 512 896s358.4-154.7264 358.4-345.6zM553.2672 113.25440000000003c34.0992 32.1792 72.7296 78.1056 108.7488 129.6896C741.8112 357.19680000000005 793.6 476.416 793.6 550.4 793.6 698.2144000000001 668.16 819.2 512 819.2S230.4 698.2144000000001 230.4 550.4c0-74.2144 51.7888-193.408 131.584-307.6096 35.9936-51.5328 74.624-97.4336 108.7232-129.5872 15.616-14.7456 29.5424-25.856 40.448-32.6144 12.544 6.7584 26.4704 17.8944 42.112 32.6656zM512 409.6a153.6 153.6 0 1 0 0 307.2 153.6 153.6 0 0 0 0-307.2z m0 76.8a76.8 76.8 0 1 1 0 153.6 76.8 76.8 0 0 1 0-153.6z"  horiz-adv-x="1024" />

    
    <glyph glyph-name="arrow" unicode="&#58936;" d="M262.626 354.706c-5.486 5.686-13.173 9.217-21.685 9.217-16.634 0-30.118-13.484-30.118-30.118 0-8.122 3.215-15.494 8.442-20.911l271.050-281.089c5.486-5.686 13.173-9.217 21.685-9.217s16.199 3.531 21.676 9.208l271.067 281.107c5.218 5.408 8.433 12.779 8.433 20.902 0 16.634-13.484 30.118-30.118 30.118-8.512 0-16.199-3.531-21.676-9.208l-249.383-258.619-249.374 258.61zM481.882 705.255v-441.725c0-16.634 13.484-30.118 30.118-30.118 16.634 0 30.118 13.484 30.118 30.118v441.725c0 16.634-13.484 30.118-30.118 30.118-16.634 0-30.118-13.484-30.118-30.118z"  horiz-adv-x="1024" />

    
    <glyph glyph-name="present" unicode="&#58942;" d="M128 537.6l51.2 51.2v-153.6l-51.2 51.2h778.3936l-51.2-51.2v153.6l51.2-51.2H128z m778.3936 51.2v-153.6H128v153.6h778.3936zM204.8 435.2l51.2 51.2v-474.624l-51.2 51.2h640l-51.2-51.2V486.4l51.2-51.2H204.8z m640 51.2v-474.624H204.8V486.4h640zM512 460.8h51.2v-409.6h-51.2zM332.8 665.6l128 102.4 76.8-179.2-51.2-51.2zM742.4 665.6l-128 102.4-76.8-179.2 51.2-51.2z"  horiz-adv-x="1049" />

    
    <glyph glyph-name="lefit" unicode="&#58956;" d="M1464.510171-112.68388600000003l25.219658 201.728H1111.4496c-69.602743 0-120.437029 45.1584-113.473829 100.864l12.624458 100.878629h504.334628l25.219657 201.728H1035.819886l12.609828 100.878628c6.948571 55.7056 69.061486 100.864 138.693486 100.864h378.250971L1590.5792 896H1212.342857C1003.432229 896 817.152 760.510171 796.247771 593.393371l-25.219657-201.728-25.205028-201.757257c-20.904229-167.1168 131.525486-302.592 340.421485-302.592h378.2656zM1583.601371 49.34217100000001l-7.650742-61.162057-12.5952-100.878628h252.181942l12.5952 100.878628 25.219658 201.742629 12.609828 100.864H2370.311314l25.205029 201.742628H1891.181714l12.5952 100.849372c6.9632 55.720229 69.046857 100.878629 138.708115 100.878628h378.250971L2445.941029 896h-378.250972c-208.896 0-395.190857-135.4752-416.080457-302.621257l-25.219657-201.728-25.205029-201.728-16.369371-130.837943-1.214172-9.742629zM2670.884571-112.68388600000003l42.276572 338.271086 8.162743 65.199543 5.368685 43.022628 3.978972 31.787886 3.262171 26.038857 37.814857 302.621257L2796.9536 896h-252.152686l-25.219657-201.728-25.219657-201.742629-15.213714-121.768228-60.445257-483.4304zM3324.503771 896h-428.690285l-25.205029-201.742629h252.152686l-25.205029-201.728-19.3536-154.799542-31.100343-248.685715h0.029258-0.029258l-25.1904-201.728h252.167315l35.064685 280.561372 15.36 122.923885 25.234286 201.728h-0.029257l25.219657 201.728h252.181943L3652.330057 896h-252.167314zM634.368 89.04411400000004H382.186057c-69.632 0-120.437029 45.1584-113.473828 100.878629l25.219657 201.728 12.609828 100.878628L344.356571 795.121371 356.981029 896H104.813714l-12.624457-100.878629-25.205028-201.728-25.219658-201.742628-25.234285-201.728c-20.874971-167.1168 131.540114-302.606629 340.450743-302.606629H609.133714l25.234286 201.728z"  horiz-adv-x="3657" />

    
    <glyph glyph-name="arrow-right" unicode="&#58959;" d="M971.016 193.62900000000002c-40.058-40.058-70.103-25.037-70.102 30.043v400.582c0 55.08 30.043 70.102 70.102 30.043l195.284-195.284c20.029-20.029 20.029-50.073 0-70.102l-195.284-195.283z"  horiz-adv-x="2048" />

    
    <glyph glyph-name="pt" unicode="&#58950;" d="M849.702128 220.595745a152.510638 152.510638 0 0 1-152.510639 152.510638H392.170213a152.510638 152.510638 0 0 1-152.510639-152.510638v-283.234043h610.042554V220.595745zM174.297872-128V220.595745c0 120.330894 97.541447 217.87234 217.872341 217.87234h305.021276c120.330894 0 217.87234-97.541447 217.872341-217.87234v-348.595745H174.297872zM544.680851 525.617021a152.510638 152.510638 0 1 1 0 305.021277 152.510638 152.510638 0 0 1 0-305.021277z m0-65.361702c-120.330894 0-217.87234 97.541447-217.87234 217.872341S424.349957 896 544.680851 896s217.87234-97.541447 217.87234-217.87234-97.541447-217.87234-217.87234-217.872341zM708.085106 743.489362h-566.468085a32.680851 32.680851 0 0 1 0-65.361702h566.468085a32.680851 32.680851 0 0 1 0 65.361702z"  horiz-adv-x="1024" />

    
    <glyph glyph-name="location-a" unicode="&#58891;" d="M486.4 721.6128c106.3936 0 192.6144-84.1216 192.6144-187.904 0-103.7312-86.2208-187.8016-192.6144-187.8016-106.3424 0-192.6144 84.0704-192.6144 187.8528 0 103.7312 86.272 187.904 192.6144 187.904zM819.2 520.192C819.2 699.392 670.208 844.8 486.4 844.8S153.6 699.4944 153.6 520.192a317.9008 317.9008 0 0 1 44.3904-162.048l215.04-401.7664c40.0896-74.8544 105.1648-75.1104 145.408-0.2048l215.808 400.9984A317.2352 317.2352 0 0 1 819.2 520.192z"  horiz-adv-x="1024" />

    
    <glyph glyph-name="clock" unicode="&#58892;" d="M510.6688 844.8a459.4688 459.4688 0 1 0 0-918.9376A459.4688 459.4688 0 0 0 510.6688 844.8zM563.2 642.6623999999999a51.2 51.2 0 0 1-102.4 0v-281.6a51.2 51.2 0 0 1 22.784-42.5984l153.6-102.4a51.2 51.2 0 1 1 56.832 85.1968L563.2 388.4544V642.6623999999999z"  horiz-adv-x="1024" />

    
    <glyph glyph-name="tag" unicode="&#58897;" d="M146.7392 314.88c-19.968 19.8656-37.9904 59.3408-40.2432 86.8352l-23.2448 279.9104c-7.0144 84.5312 55.296 146.0224 140.0832 137.216l271.0016-28.2624c28.0576-2.9184 66.9184-21.3504 86.8352-41.3184l392.6016-392.5504c39.936-39.936 39.6288-104.96-0.4096-145.0496l-289.024-289.024a102.2976 102.2976 0 0 0-145.0496-0.4096L146.7392 314.88z m202.5984 231.7824a102.4 102.4 0 1 1-144.7936 144.7936 102.4 102.4 0 0 1 144.7936-144.7936z"  horiz-adv-x="1024" />

    
    <glyph glyph-name="person" unicode="&#58900;" d="M512.768 303.36c157.4912 0 285.696 132.4032 285.696 295.1168 0 162.7136-128.2048 295.1168-285.696 295.1168-157.5424 0-285.696-132.4032-285.696-295.1168 0-162.7136 128.1536-295.1168 285.696-295.1168z m175.8208-45.4144c-47.616-41.6256-109.8752-64.3072-175.8208-64.3072-69.632 0-131.8912 26.4704-179.5072 64.3072C168.3968 201.1648 51.2 64.9728 51.2-90.16319999999996c0-11.3664 0-26.4704 3.6864-37.8368h912.0768c0 11.3664 3.6864 26.4704 3.6864 37.8368-3.6864 155.136-117.248 291.328-282.0608 348.1088z"  horiz-adv-x="1024" />

    
    <glyph glyph-name="bulb" unicode="&#58898;" d="M844.8 512c0 184.32-148.48 332.8-332.8 332.8s-332.8-148.48-332.8-332.8c0-115.2 56.32-220.16 153.6-281.6v-102.4c0-28.16 23.04-51.2 51.2-51.2h256c28.16 0 51.2 23.04 51.2 51.2v102.4c97.28 64 153.6 168.96 153.6 281.6z m-194.56-215.04l-35.84-23.04v-120.32h-204.8v120.32l-35.84 23.04c-74.24 48.64-117.76 128-117.76 215.04 0 140.8 115.2 256 256 256s256-115.2 256-256c0-87.04-43.52-168.96-117.76-215.04zM604.16 25.600000000000023h-186.88c-20.48 0-35.84-17.92-35.84-38.4s15.36-38.4 35.84-38.4h186.88c20.48 0 35.84 17.92 35.84 38.4s-15.36 38.4-35.84 38.4z"  horiz-adv-x="1024" />

    
    <glyph glyph-name="cart" unicode="&#58899;" d="M138.24 691.2h-74.24c-20.48 0-38.4 17.92-38.4 38.4s17.92 38.4 38.4 38.4h102.4c17.92 0 33.28-12.8 38.4-28.16l120.32-483.84h427.52l81.92 307.2h-435.2c-20.48 0-38.4 17.92-38.4 38.4s17.92 38.4 38.4 38.4h486.4c25.6 0 43.52-23.04 35.84-48.64l-102.4-384c-5.12-17.92-20.48-28.16-35.84-28.16h-486.4c-17.92 0-33.28 12.8-38.4 28.16l-120.32 483.84z m207.36-691.2c-35.84 0-64 28.16-64 64s28.16 64 64 64 64-28.16 64-64-28.16-64-64-64z m384 0c-35.84 0-64 28.16-64 64s28.16 64 64 64 64-28.16 64-64-28.16-64-64-64z"  horiz-adv-x="1024" />

    
    <glyph glyph-name="order" unicode="&#58901;" d="M675.84 742.4h130.56c5.12 0 12.8-7.68 12.8-12.8v-691.2c0-5.12-7.68-12.8-12.8-12.8h-563.2c-5.12 0-12.8 7.68-12.8 12.8v691.2c0 5.12 7.68 12.8 12.8 12.8h102.4c20.48 0 38.4 17.92 38.4 38.4s-17.92 38.4-38.4 38.4h-102.4c-46.08 0-89.6-43.52-89.6-89.6v-691.2c0-46.08 43.52-89.6 89.6-89.6h563.2c46.08 0 89.6 43.52 89.6 89.6v691.2c0 46.08-43.52 89.6-89.6 89.6h-130.56c-20.48 0-38.4-17.92-38.4-38.4s17.92-38.4 38.4-38.4zM448 742.4h128c20.48 0 38.4 17.92 38.4 38.4s-17.92 38.4-38.4 38.4h-128c-20.48 0-38.4-17.92-38.4-38.4s17.92-38.4 38.4-38.4zM358.4 384h332.8c20.48 0 38.4 17.92 38.4 38.4s-17.92 38.4-38.4 38.4h-332.8c-20.48 0-38.4-17.92-38.4-38.4s17.92-38.4 38.4-38.4zM358.4 153.60000000000002h332.8c20.48 0 38.4 17.92 38.4 38.4s-17.92 38.4-38.4 38.4h-332.8c-20.48 0-38.4-17.92-38.4-38.4s17.92-38.4 38.4-38.4z"  horiz-adv-x="1024" />

    
    <glyph glyph-name="medal" unicode="&#58902;" d="M512 179.20000000000005c168.96 0 307.2 138.24 307.2 307.2s-138.24 307.2-307.2 307.2-307.2-138.24-307.2-307.2 138.24-307.2 307.2-307.2z m-140.8-48.64v-128l128 71.68c12.8 7.68 25.6 5.12 38.4 0l115.2-69.12v125.44c-43.52-17.92-92.16-25.6-140.8-25.6-48.64-2.56-97.28 7.68-140.8 25.6z m-76.8 38.4c-99.84 69.12-166.4 184.32-166.4 317.44 0 212.48 171.52 384 384 384s384-171.52 384-384c0-130.56-66.56-248.32-166.4-317.44v-232.96c0-30.72-33.28-48.64-58.88-33.28l-153.6 92.16-166.4-92.16c-25.6-15.36-56.32 5.12-56.32 33.28v232.96zM512 384c56.32 0 102.4 46.08 102.4 102.4s-46.08 102.4-102.4 102.4-102.4-46.08-102.4-102.4 46.08-102.4 102.4-102.4z m0-76.8c-99.84 0-179.2 79.36-179.2 179.2s79.36 179.2 179.2 179.2 179.2-79.36 179.2-179.2-79.36-179.2-179.2-179.2z"  horiz-adv-x="1024" />

    
    <glyph glyph-name="card" unicode="&#58904;" d="M943.686275 695.215686h-863.37255c-38.14902 0-70.27451-32.12549-70.274509-70.27451v-501.960784c0-38.14902 32.12549-70.27451 70.274509-70.27451h863.37255c38.14902 0 70.27451 32.12549 70.274509 70.27451v501.960784c0 38.14902-32.12549 70.27451-70.274509 70.27451z m0-582.27451h-863.37255c-6.023529 0-10.039216 4.015686-10.039215 10.039216v501.960784c0 6.023529 4.015686 10.039216 10.039215 10.039216h863.37255c6.023529 0 10.039216-4.015686 10.039215-10.039216v-100.392156h-702.745098c-16.062745 0-30.117647-14.054902-30.117647-30.117647s14.054902-30.117647 30.117647-30.117648h702.745098v-341.333333c0-6.023529-4.015686-10.039216-10.039215-10.039216zM853.333333 343.84313699999996h-281.098039c-16.062745 0-30.117647-14.054902-30.117647-30.117647s14.054902-30.117647 30.117647-30.117647h281.098039c16.062745 0 30.117647 14.054902 30.117647 30.117647s-14.054902 30.117647-30.117647 30.117647z"  horiz-adv-x="1024" />

    
    <glyph glyph-name="work" unicode="&#58906;" d="M668.16 678.4h-40.96H619.52h-2.56-2.56s-2.56 0-2.56-2.56c0 0-2.56 0-2.56-2.56l-2.56-2.56-2.56-2.56-2.56-2.56-2.56-2.56-2.56-2.56s0-2.56-2.56-2.56l-230.4-488.96c-135.68 2.56-245.76 102.4-245.76 217.6 0 117.76 112.64 217.6 250.88 217.6h94.72c20.48 0 38.4 17.92 38.4 38.4s-17.92 38.4-38.4 38.4h-94.72c-179.2 0-327.68-133.12-327.68-294.4s148.48-294.4 327.68-294.4h20.48c15.36 0 28.16 7.68 35.84 23.04l230.4 488.96h17.92c135.68 0 240.64-89.6 240.64-204.8 0-120.32-110.08-230.4-240.64-230.4h-104.96c-20.48 0-38.4-17.92-38.4-38.4s17.92-38.4 38.4-38.4h104.96c171.52 0 317.44 143.36 317.44 307.2-5.12 156.16-145.92 279.04-322.56 279.04z"  horiz-adv-x="1024" />

    
    <glyph glyph-name="headset" unicode="&#58907;" d="M947.2 332.79999999999995c0 240.64-194.56 435.2-435.2 435.2s-435.2-194.56-435.2-435.2v-281.6c0-28.16 23.04-51.2 51.2-51.2h179.2c28.16 0 51.2 23.04 51.2 51.2v281.6c0 28.16-23.04 51.2-51.2 51.2h-148.48c25.6 174.08 174.08 307.2 353.28 307.2s330.24-133.12 353.28-307.2h-148.48c-28.16 0-51.2-23.04-51.2-51.2v-281.6c0-28.16 23.04-51.2 51.2-51.2h179.2c28.16 0 51.2 23.04 51.2 51.2v281.6z m-665.6-256h-128v230.4h128v-230.4z m588.8 0h-128v230.4h128v-230.4z"  horiz-adv-x="1024" />

    
    <glyph glyph-name="coupon" unicode="&#58908;" d="M980.992 506.88h10.24c18.432-2.048 32.768 12.288 32.768 30.72v102.4c0 38.912-32.768 71.68-71.68 71.68h-880.64c-38.912 0-71.68-32.768-71.68-71.68v-491.52c0-38.912 32.768-71.68 71.68-71.68h880.64c38.912 0 71.68 32.768 71.68 71.68v102.4c0 18.432-14.336 32.768-32.768 30.72h-10.24c-67.584 0-122.88 51.2-122.88 112.64 2.048 61.44 55.296 112.64 122.88 112.64z m-18.432-284.672v-71.68c0-6.144-4.096-10.24-10.24-10.24h-708.608c2.048 4.096 2.048 6.144 2.048 10.24 0 16.384-14.336 30.72-30.72 30.72s-30.72-14.336-30.72-30.72c0-4.096 0-6.144 2.048-10.24h-114.688c-6.144 0-10.24 4.096-10.24 10.24v491.52c0 6.144 4.096 10.24 10.24 10.24h114.688c-2.048-4.096-2.048-6.144-2.048-10.24 0-16.384 14.336-30.72 30.72-30.72s30.72 14.336 30.72 30.72c0 4.096 0 6.144-2.048 10.24h708.608c6.144 0 10.24-4.096 10.24-10.24v-71.68c-92.16-8.192-163.84-81.92-163.84-174.08s71.68-165.888 163.84-174.08zM215.04 517.12m-30.72 0a30.72 30.72 0 1 1 61.44 0 30.72 30.72 0 1 1-61.44 0ZM215.04 394.24m-30.72 0a30.72 30.72 0 1 1 61.44 0 30.72 30.72 0 1 1-61.44 0ZM215.04 271.36m-30.72 0a30.72 30.72 0 1 1 61.44 0 30.72 30.72 0 1 1-61.44 0Z"  horiz-adv-x="1024" />

    
    <glyph glyph-name="money" unicode="&#58909;" d="M512 15.360000000000014c202.752 0 368.64 165.888 368.64 368.64s-165.888 368.64-368.64 368.64-368.64-165.888-368.64-368.64 165.888-368.64 368.64-368.64z m0-61.44c-237.568 0-430.08 192.512-430.08 430.08s192.512 430.08 430.08 430.08 430.08-192.512 430.08-430.08-192.512-430.08-430.08-430.08zM376.832 535.552l86.016-155.648h-51.2c-6.144 0-10.24-4.096-10.24-10.24v-12.288c0-6.144 4.096-10.24 10.24-10.24h69.632v-40.96h-71.68c-6.144 0-10.24-4.096-10.24-10.24v-12.288c0-6.144 4.096-10.24 10.24-10.24h71.68v-63.488c0-6.144 4.096-10.24 10.24-10.24h40.96c6.144 0 10.24 4.096 10.24 10.24v63.488h71.68c6.144 0 10.24 4.096 10.24 10.24v12.288c0 6.144-4.096 10.24-10.24 10.24h-71.68v40.96h71.68c6.144 0 10.24 4.096 10.24 10.24v12.288c0 6.144-4.096 10.24-10.24 10.24h-53.248l86.016 155.648c2.048 4.096 0 10.24-4.096 14.336-2.048 0-4.096 2.048-4.096 2.048h-38.912c-8.192 0-14.336-4.096-18.432-12.288l-67.584-137.216-67.584 137.216c-4.096 6.144-10.24 12.288-18.432 12.288h-38.912c-6.144 0-10.24-4.096-10.24-10.24-4.096-2.048-4.096-4.096-2.048-6.144z"  horiz-adv-x="1024" />

    
    <glyph glyph-name="close" unicode="&#58910;" d="M565.76 384L921.6 739.84c15.36 15.36 15.36 38.4 0 53.76-15.36 15.36-38.4 15.36-53.76 0l-355.84-355.84-355.84 355.84c-15.36 15.36-38.4 15.36-53.76 0-15.36-15.36-15.36-38.4 0-53.76l355.84-355.84-355.84-355.84c-15.36-15.36-15.36-38.4 0-53.76 15.36-15.36 38.4-15.36 53.76 0L512 330.24l355.84-355.84c15.36-15.36 38.4-15.36 53.76 0 15.36 15.36 15.36 38.4 0 53.76l-355.84 355.84z"  horiz-adv-x="1024" />

    
    <glyph glyph-name="flag" unicode="&#58911;" d="M770.56 704c23.04 25.6 5.12 64-28.16 64h-537.6c-20.48 0-38.4-17.92-38.4-38.4v-691.2c0-20.48 17.92-38.4 38.4-38.4s38.4 17.92 38.4 38.4v652.8h409.6l-117.76-128c-12.8-15.36-12.8-38.4 0-51.2l117.76-128h-332.8c-20.48 0-38.4-17.92-38.4-38.4s17.92-38.4 38.4-38.4h422.4c33.28 0 51.2 40.96 28.16 64l-153.6 166.4 153.6 166.4z"  horiz-adv-x="1024" />

    
    <glyph glyph-name="tip" unicode="&#58884;" d="M512-128c-282.624 0-512 229.376-512 512s229.376 512 512 512 512-229.376 512-512-229.376-512-512-512z m0 962.56c-247.808 0-450.56-202.752-450.56-450.56s202.752-450.56 450.56-450.56 450.56 202.752 450.56 450.56-202.752 450.56-450.56 450.56zM471.04 629.76c0 22.528 18.432 40.96 40.96 40.96s40.96-18.432 40.96-40.96v-307.2c0-22.528-18.432-40.96-40.96-40.96s-40.96 18.432-40.96 40.96v307.2z m40.96-501.76c-28.672 0-51.2 22.528-51.2 51.2s22.528 51.2 51.2 51.2 51.2-22.528 51.2-51.2-22.528-51.2-51.2-51.2z"  horiz-adv-x="1024" />

    
    <glyph glyph-name="success-b" unicode="&#58885;" d="M512-128c-282.624 0-512 229.376-512 512s229.376 512 512 512 512-229.376 512-512-229.376-512-512-512z m0 962.56c-247.808 0-450.56-202.752-450.56-450.56s202.752-450.56 450.56-450.56 450.56 202.752 450.56 450.56-202.752 450.56-450.56 450.56zM448.512 179.20000000000005c-10.24 0-22.528 4.096-28.672 12.288l-151.552 157.696c-16.384 16.384-16.384 43.008 0 57.344 16.384 16.384 43.008 16.384 57.344 0l122.88-126.976 268.288 276.48c16.384 16.384 40.96 16.384 57.344 0 16.384-16.384 16.384-40.96 0-57.344l-299.008-307.2c-4.096-8.192-14.336-12.288-26.624-12.288z"  horiz-adv-x="1024" />

    
    <glyph glyph-name="arrow-right-b" unicode="&#58886;" d="M777.965395 415.998546L310.204839 882.781692a45.472842 45.472842 0 0 1-64.136721 0 45.147039 45.147039 0 0 1 0-64.043635L681.760313 384.023272 246.068118-50.691513999999984a45.147039 45.147039 0 0 1 0-64.043634c17.686469-17.639925 46.450252-17.639925 64.136721 0l467.760556 466.783146a45.147039 45.147039 0 0 1 0 63.950548"  horiz-adv-x="1024" />

    
    <glyph glyph-name="select" unicode="&#58889;" d="M512-128C229.239467-128 0 101.23946699999999 0 384 0 666.760533 229.239467 896 512 896c282.760533 0 512-229.239467 512-512 0-282.760533-229.239467-512-512-512z m-168.618667 521.557333a51.2 51.2 0 0 1-72.362666-72.430933l134.519466-134.5536a51.2 51.2 0 0 1 72.430934 0l263.611733 263.611733a51.2 51.2 0 0 1-72.3968 72.430934l-227.4304-227.4304-98.338133 98.338133z"  horiz-adv-x="1024" />

    
    <glyph glyph-name="delete" unicode="&#58893;" d="M153.6 665.6h704a38.4 38.4 0 0 1 0 76.8H153.6a38.4 38.4 0 0 1 0-76.8zM460.8 780.8V716.8a38.4 38.4 0 0 1 76.8 0V780.8a38.4 38.4 0 0 1-76.8 0zM179.2 691.2v-601.6256C179.2 11.7504 242.176-51.2 320.1536-51.2h383.6928A140.8 140.8 0 0 1 844.8 89.7792V539.392a38.4 38.4 0 0 1-76.8 0v-449.6384A64 64 0 0 0 703.8464 25.6H320.1536A63.9232 63.9232 0 0 0 256 89.5744V691.2a38.4 38.4 0 0 1-76.8 0zM563.2 550.4v-435.2a38.4 38.4 0 0 1 76.8 0v435.2a38.4 38.4 0 0 1-76.8 0zM384 550.4v-435.2a38.4 38.4 0 0 1 76.8 0v435.2a38.4 38.4 0 0 1-76.8 0z"  horiz-adv-x="1024" />

    
    <glyph glyph-name="achieve" unicode="&#58912;" d="M716.8 202.24c-7.68 0-12.8-5.12-12.8-12.8h-384c0 7.68-5.12 12.8-12.8 12.8s-12.8-5.12-12.8-12.8v-279.04c0-5.12 2.56-7.68 5.12-10.24 5.12-2.56 7.68-2.56 12.8 0l204.8 112.64 192-112.64c2.56 0 5.12-2.56 7.68-2.56 2.56 0 5.12 0 5.12 2.56 5.12 2.56 7.68 7.68 7.68 10.24v279.04c0 7.68-5.12 12.8-12.8 12.8zM102.4 486.4a409.6 409.6 0 1 1 819.2 0 409.6 409.6 0 1 1-819.2 0ZM512 486.4m-204.8 0a204.8 204.8 0 1 1 409.6 0 204.8 204.8 0 1 1-409.6 0ZM512 486.4m-204.8 0a204.8 204.8 0 1 1 409.6 0 204.8 204.8 0 1 1-409.6 0Z"  horiz-adv-x="1024" />

    
    <glyph glyph-name="warn" unicode="&#58913;" d="M512 824.3199999999999c-243.712 0-440.32-196.608-440.32-440.32s196.608-440.32 440.32-440.32 440.32 196.608 440.32 440.32-196.608 440.32-440.32 440.32z m0-819.2c-208.896 0-378.88 169.984-378.88 378.88s169.984 378.88 378.88 378.88 378.88-169.984 378.88-378.88-169.984-378.88-378.88-378.88zM452.608 297.98400000000004c-2.048-28.672-2.048-49.152-2.048-57.344s-2.048-22.528-4.096-38.912h118.784c0 22.528 2.048 55.296 4.096 98.304h-55.296c-18.432-4.096-38.912-4.096-61.44-2.048zM466.944 582.656c-2.048-94.208-4.096-174.08-6.144-239.616h102.4c8.192 124.928 14.336 204.8 18.432 239.616h-55.296c-16.384-2.048-36.864 0-59.392 0z"  horiz-adv-x="1024" />

    
    <glyph glyph-name="success-c" unicode="&#58914;" d="M854.016 814.08h-124.928c-16.384 0-30.72-14.336-30.72-30.72s14.336-30.72 30.72-30.72h124.928c16.384 0 26.624-12.288 26.624-26.624v-663.552c0-14.336-12.288-26.624-26.624-26.624h-661.504c-16.384 0-26.624 12.288-26.624 26.624v663.552c0 14.336 12.288 26.624 26.624 26.624h122.88c16.384 0 30.72 14.336 30.72 30.72s-14.336 30.72-30.72 30.72h-122.88c-49.152 0-88.064-38.912-88.064-88.064v-663.552c0-49.152 38.912-88.064 88.064-88.064h661.504c49.152 0 88.064 38.912 88.064 88.064v663.552c0 49.152-38.912 88.064-88.064 88.064zM440.32 752.64h163.84c16.384 0 30.72 14.336 30.72 30.72s-14.336 30.72-30.72 30.72h-163.84c-16.384 0-30.72-14.336-30.72-30.72s14.336-30.72 30.72-30.72zM325.632 371.712l122.88-122.88c6.144-6.144 14.336-8.192 22.528-8.192s16.384 2.048 22.528 8.192l225.28 225.28c12.288 12.288 12.288 30.72 0 43.008-12.288 12.288-30.72 12.288-43.008 0l-204.8-204.8-102.4 102.4c-12.288 12.288-30.72 12.288-43.008 0-10.24-10.24-10.24-30.72 0-43.008z"  horiz-adv-x="1024" />

    
    <glyph glyph-name="qr" unicode="&#58915;" d="M911.36 424.96h-757.76c-16.384 0-30.72-14.336-30.72-30.72s14.336-30.72 30.72-30.72h757.76c16.384 0 30.72 14.336 30.72 30.72s-14.336 30.72-30.72 30.72zM153.6 537.6c16.384 0 30.72 14.336 30.72 30.72v153.6c0 6.144 4.096 10.24 10.24 10.24h153.6c16.384 0 30.72 14.336 30.72 30.72s-14.336 30.72-30.72 30.72h-153.6c-38.912 0-71.68-32.768-71.68-71.68v-153.6c0-16.384 14.336-30.72 30.72-30.72zM348.16 56.32000000000005h-153.6c-6.144 0-10.24 4.096-10.24 10.24v153.6c0 16.384-14.336 30.72-30.72 30.72s-30.72-14.336-30.72-30.72v-153.6c0-38.912 32.768-71.68 71.68-71.68h153.6c16.384 0 30.72 14.336 30.72 30.72s-14.336 30.72-30.72 30.72zM890.88 250.88c-16.384 0-30.72-14.336-30.72-30.72v-153.6c0-6.144-4.096-10.24-10.24-10.24h-153.6c-16.384 0-30.72-14.336-30.72-30.72s14.336-30.72 30.72-30.72h153.6c38.912 0 71.68 32.768 71.68 71.68v153.6c0 16.384-14.336 30.72-30.72 30.72zM696.32 732.16h153.6c6.144 0 10.24-4.096 10.24-10.24v-153.6c0-16.384 14.336-30.72 30.72-30.72s30.72 14.336 30.72 30.72v153.6c0 38.912-32.768 71.68-71.68 71.68h-153.6c-16.384 0-30.72-14.336-30.72-30.72s14.336-30.72 30.72-30.72z"  horiz-adv-x="1024" />

    
    <glyph glyph-name="comment" unicode="&#58916;" d="M245.76-15.360000000000014c-4.096 0-8.192 0-12.288 2.048-12.288 4.096-18.432 16.384-18.432 28.672v133.12h-71.68c-38.912 0-71.68 32.768-71.68 71.68v430.08c0 38.912 32.768 71.68 71.68 71.68h757.76c38.912 0 71.68-32.768 71.68-71.68v-430.08c0-38.912-32.768-71.68-71.68-71.68h-479.232l-155.648-155.648c-4.096-4.096-12.288-8.192-20.48-8.192z m-102.4 675.84c-6.144 0-10.24-4.096-10.24-10.24v-430.08c0-6.144 4.096-10.24 10.24-10.24h102.4c16.384 0 30.72-14.336 30.72-30.72v-90.112l110.592 110.592c6.144 6.144 14.336 8.192 22.528 8.192h491.52c6.144 0 10.24 4.096 10.24 10.24v430.08c0 6.144-4.096 10.24-10.24 10.24h-757.76zM307.2 445.44m-61.44 0a61.44 61.44 0 1 1 122.88 0 61.44 61.44 0 1 1-122.88 0ZM512 445.44m-61.44 0a61.44 61.44 0 1 1 122.88 0 61.44 61.44 0 1 1-122.88 0ZM716.8 445.44m-61.44 0a61.44 61.44 0 1 1 122.88 0 61.44 61.44 0 1 1-122.88 0Z"  horiz-adv-x="1024" />

    
    <glyph glyph-name="setting" unicode="&#58917;" d="M911.36 519.6800000000001l-48.64 10.24 28.16 40.96c23.04 35.84 20.48 84.48-12.8 117.76l-64 64c-30.72 30.72-79.36 35.84-115.2 12.8l-40.96-28.16-10.24 48.64c-7.68 43.52-46.08 74.24-89.6 74.24h-89.6c-43.52 0-81.92-30.72-89.6-74.24l-10.24-48.64-40.96 28.16c-35.84 23.04-84.48 20.48-117.76-12.8l-64-64c-30.72-30.72-35.84-79.36-12.8-115.2l28.16-40.96-48.64-10.24c-43.52-7.68-74.24-46.08-74.24-89.6v-89.6c0-43.52 30.72-81.92 74.24-89.6l48.64-10.24-28.16-40.96c-23.04-35.84-20.48-84.48 12.8-117.76l64-64c30.72-30.72 79.36-35.84 115.2-12.8l40.96 28.16 10.24-48.64c7.68-43.52 46.08-74.24 89.6-74.24h89.6c43.52 0 81.92 30.72 89.6 74.24l10.24 48.64 40.96-28.16c35.84-23.04 84.48-20.48 117.76 12.8l64 64c30.72 30.72 35.84 79.36 12.8 115.2l-28.16 40.96 48.64 10.24c43.52 7.68 74.24 46.08 74.24 89.6v89.6c0 43.52-30.72 81.92-74.24 89.6z m-2.56-181.76c0-7.68-5.12-12.8-12.8-15.36l-69.12-15.36c-12.8-2.56-23.04-10.24-28.16-23.04l-15.36-35.84c-5.12-12.8-2.56-25.6 2.56-35.84l38.4-58.88c5.12-5.12 2.56-15.36-2.56-20.48l-64-64c-5.12-5.12-12.8-5.12-20.48-2.56l-58.88 38.4c-10.24 7.68-23.04 7.68-35.84 2.56l-35.84-15.36c-12.8-5.12-20.48-15.36-23.04-28.16l-15.36-69.12c-2.56-7.68-7.68-12.8-15.36-12.8h-89.6c-7.68 0-12.8 5.12-15.36 12.8l-15.36 69.12c-2.56 12.8-10.24 23.04-23.04 28.16l-35.84 15.36c-5.12 2.56-10.24 2.56-15.36 2.56-7.68 0-15.36-2.56-20.48-5.12l-58.88-38.4c-5.12-5.12-15.36-2.56-20.48 2.56l-64 64c-5.12 5.12-5.12 12.8-2.56 20.48l38.4 58.88c7.68 10.24 7.68 23.04 2.56 35.84l-15.36 35.84c-5.12 12.8-15.36 20.48-28.16 23.04l-69.12 15.36c-7.68 2.56-12.8 7.68-12.8 15.36v89.6c0 7.68 5.12 12.8 12.8 15.36l69.12 15.36c12.8 2.56 23.04 10.24 28.16 23.04l15.36 35.84c5.12 12.8 2.56 25.6-2.56 35.84l-38.4 58.88c-5.12 5.12-2.56 15.36 2.56 20.48l64 64c5.12 5.12 12.8 5.12 20.48 2.56l58.88-38.4c10.24-7.68 23.04-7.68 35.84-2.56l35.84 15.36c12.8 5.12 20.48 15.36 23.04 28.16l15.36 69.12c2.56 7.68 7.68 12.8 15.36 12.8h89.6c7.68 0 12.8-5.12 15.36-12.8l15.36-69.12c2.56-12.8 10.24-23.04 23.04-28.16l35.84-15.36c12.8-5.12 25.6-2.56 35.84 2.56l58.88 38.4c5.12 5.12 15.36 2.56 20.48-2.56l64-64c5.12-5.12 5.12-12.8 2.56-20.48l-38.4-58.88c-7.68-10.24-7.68-23.04-2.56-35.84l15.36-35.84c5.12-12.8 15.36-20.48 28.16-23.04l69.12-15.36c7.68-2.56 12.8-7.68 12.8-15.36v-89.6zM512 565.76c-99.84 0-181.76-81.92-181.76-181.76 0-99.84 81.92-181.76 181.76-181.76 99.84 0 181.76 81.92 181.76 181.76 0 99.84-81.92 181.76-181.76 181.76z m0-286.72c-58.88 0-104.96 46.08-104.96 104.96s46.08 104.96 104.96 104.96 104.96-46.08 104.96-104.96-46.08-104.96-104.96-104.96z"  horiz-adv-x="1024" />

    
    <glyph glyph-name="chat" unicode="&#58918;" d="M168.96 279.03999999999996l135.68-128c25.6-23.04 64-5.12 64 28.16V279.03999999999996h38.4c20.48 0 38.4 17.92 38.4 38.4s-17.92 38.4-38.4 38.4h-76.8c-20.48 0-38.4-17.92-38.4-38.4v-48.64l-81.92 76.8c-7.68 7.68-15.36 10.24-25.6 10.24h-43.52c-35.84 0-64 28.16-64 64v335.36c0 35.84 28.16 64 64 64h742.4c35.84 0 64-28.16 64-64v-335.36c0-35.84-28.16-64-64-64-20.48 0-38.4-17.92-38.4-38.4s17.92-38.4 38.4-38.4c76.8 0 140.8 64 140.8 140.8v335.36c0 76.8-64 140.8-140.8 140.8h-742.4c-76.8 0-140.8-64-140.8-140.8v-335.36c0-76.8 64-140.8 140.8-140.8h28.16zM281.6 614.4m-51.2 0a51.2 51.2 0 1 1 102.4 0 51.2 51.2 0 1 1-102.4 0ZM512 614.4m-51.2 0a51.2 51.2 0 1 1 102.4 0 51.2 51.2 0 1 1-102.4 0ZM742.4 614.4m-51.2 0a51.2 51.2 0 1 1 102.4 0 51.2 51.2 0 1 1-102.4 0ZM793.6 0c0 84.48-69.12 153.6-153.6 153.6s-153.6-69.12-153.6-153.6v-51.2h307.2v51.2z m76.8-76.8c0-28.16-23.04-51.2-51.2-51.2h-358.4c-28.16 0-51.2 23.04-51.2 51.2v76.8c0 128 102.4 230.4 230.4 230.4s230.4-102.4 230.4-230.4v-76.8zM640 332.79999999999995c28.16 0 51.2 23.04 51.2 51.2s-23.04 51.2-51.2 51.2-51.2-23.04-51.2-51.2 23.04-51.2 51.2-51.2z m0-76.8c-71.68 0-128 56.32-128 128s56.32 128 128 128 128-56.32 128-128-56.32-128-128-128z"  horiz-adv-x="1024" />

    
    <glyph glyph-name="present-b" unicode="&#58919;" d="M634.88 844.8c102.4 0 184.32-43.008 184.32-122.88 0-20.48-4.096-43.008-14.336-61.44h116.736c28.672 0 51.2-22.528 51.2-51.2v-122.88c0-28.672-22.528-51.2-51.2-51.2h-51.2v-378.88c0-38.912-32.768-71.68-71.68-71.68h-573.44c-38.912 0-71.68 32.768-71.68 71.68v378.88h-30.72c-28.672 0-51.2 22.528-51.2 51.2v122.88c0 28.672 22.528 51.2 51.2 51.2h116.736c-10.24 18.432-14.336 40.96-14.336 61.44 0 79.872 67.584 122.88 163.84 122.88 47.104 0 92.16-16.384 122.88-45.056 30.72 28.672 75.776 45.056 122.88 45.056z m102.4-245.76c-30.72 0-43.008 40.96-16.384 57.344 22.528 14.336 36.864 38.912 36.864 65.536 0 34.816-51.2 61.44-122.88 61.44-43.008 0-79.872-18.432-96.256-47.104-12.288-18.432-40.96-18.432-51.2 0-18.432 28.672-53.248 47.104-96.256 47.104-67.584 0-102.4-22.528-102.4-61.44 0-26.624 14.336-51.2 36.864-65.536 26.624-16.384 14.336-57.344-16.384-57.344h-174.08v-102.4h51.2c16.384 0 30.72-14.336 30.72-30.72v-409.6c0-6.144 4.096-10.24 10.24-10.24h573.44c6.144 0 10.24 4.096 10.24 10.24v409.6c0 16.384 14.336 30.72 30.72 30.72h71.68v102.4h-176.128zM481.28 322.55999999999995v-184.32c0-16.384 14.336-30.72 30.72-30.72s30.72 14.336 30.72 30.72v184.32c0 16.384-14.336 30.72-30.72 30.72s-30.72-14.336-30.72-30.72zM184.32 435.2h655.36c16.384 0 30.72 14.336 30.72 30.72s-14.336 30.72-30.72 30.72h-655.36c-16.384 0-30.72-14.336-30.72-30.72s14.336-30.72 30.72-30.72zM286.72 599.04h614.4c16.384 0 30.72 14.336 30.72 30.72s-14.336 30.72-30.72 30.72h-614.4c-16.384 0-30.72-14.336-30.72-30.72s14.336-30.72 30.72-30.72z"  horiz-adv-x="1024" />

    


  </font>
</defs>
</svg>
